<?xml version="1.0" standalone="no"?>
<!DOCTYPE svg PUBLIC "-//W3C//DTD SVG 1.1//EN" "http://www.w3.org/Graphics/SVG/1.1/DTD/svg11.dtd" >
<!--
2013-9-30: Created.
-->
<svg>
<metadata>
Created by iconfont
</metadata>
<defs>

<font id="iconfont" horiz-adv-x="1024" >
  <font-face
    font-family="iconfont"
    font-weight="500"
    font-stretch="normal"
    units-per-em="1024"
    ascent="896"
    descent="-128"
  />
    <missing-glyph />
    
    <glyph glyph-name="zhixiangxinglishijilumaodian" unicode="&#59303;" d="M679.4 609.3H344.6L511.9 831.4zM512 228.2m-127.8 0a127.8 127.8 0 1 1 255.6 0 127.8 127.8 0 1 1-255.6 0ZM512 519.7c-161 0-291.6-130.5-291.6-291.6S351-63.4 512-63.4s291.6 130.5 291.6 291.6S673 519.7 512 519.7z m0-491.7c-110.5 0-200.1 89.6-200.1 200.1S401.5 428.3 512 428.3s200.1-89.6 200.1-200.1S622.5 28 512 28z"  horiz-adv-x="1024" />

    
    <glyph glyph-name="dangqianlishijilumaodian" unicode="&#59304;" d="M512 228.2m-127.8 0a127.8 127.8 0 1 1 255.6 0 127.8 127.8 0 1 1-255.6 0ZM512 519.7c-161 0-291.6-130.5-291.6-291.6S351-63.4 512-63.4s291.6 130.5 291.6 291.6S673 519.7 512 519.7z m0-491.7c-110.5 0-200.1 89.6-200.1 200.1S401.5 428.3 512 428.3s200.1-89.6 200.1-200.1S622.5 28 512 28z"  horiz-adv-x="1024" />

    
    <glyph glyph-name="zidingyiliebiao" unicode="&#59240;" d="M401.92 858.112H90.112c-28.16 0-51.2-23.04-51.2-51.2v-311.808c0-28.16 23.04-51.2 51.2-51.2h311.808c28.16 0 51.2 23.04 51.2 51.2V806.912c0 28.16-22.528 51.2-51.2 51.2zM379.904 517.12H112.128V784.896h267.776V517.12zM934.912 858.112h-311.808c-28.16 0-51.2-23.04-51.2-51.2v-311.808c0-28.16 23.04-51.2 51.2-51.2h311.808c28.16 0 51.2 23.04 51.2 51.2V806.912c0 28.16-23.04 51.2-51.2 51.2zM912.896 517.12H645.12V784.896h267.776V517.12zM401.92 325.12H90.112c-28.16 0-51.2-23.04-51.2-51.2v-311.808c0-28.16 23.04-51.2 51.2-51.2h311.808c28.16 0 51.2 23.04 51.2 51.2v311.808c0 28.672-22.528 51.2-51.2 51.2z m-22.016-340.992H112.128v267.776h267.776v-267.776zM815.616 325.12H742.4v-170.496h-170.496v-73.216H742.4v-170.496h73.216v170.496h170.496v73.216h-170.496z"  horiz-adv-x="1024" />

    
    <glyph glyph-name="jiantou9" unicode="&#58892;" d="M944.083879 606.463698c14.264888-18.286482 15.462157-41.208541 2.670829-51.196009l-417.191704-325.421604c-2.885723-2.261507-12.156878-7.828292-13.732769-9.578146-15.544021-17.181311-37.893029-22.338774-49.947576-11.461029l-392.908648 354.309538c-12.054547 10.887978-9.271154 33.666774 6.272867 50.889017 15.544021 17.21201 37.893029 22.349007 49.988508 11.471262l357.584118-322.443783 408.258241 318.463122C907.910005 631.483534 929.84969 624.739946 944.083879 606.463698z"  horiz-adv-x="1024" />

    
    <glyph glyph-name="zhankaijiao" unicode="&#59293;" d="M919.9 526.1l40.5-79.4-453.1-230.9L65.4 446.9l41.3 79 401.1-209.8z"  horiz-adv-x="1024" />

    
    <glyph glyph-name="zhankaijiao-xiangshang" unicode="&#59294;" d="M105.9 320.8l-40.5 79.4 453.1 230.9L960.4 400 919 321 518 530.8z"  horiz-adv-x="1024" />

    
    <glyph glyph-name="beizhu" unicode="&#59222;" d="M503.808 619.52c0 17.408-13.824 31.232-31.232 31.232H229.376c-17.408 0-31.232-13.824-31.232-31.232s13.824-31.232 31.232-31.232h243.2c17.408 0 31.232 13.824 31.232 31.232zM229.376 480.768c-17.408 0-31.232-13.824-31.232-31.232 0-17.408 13.824-31.232 31.232-31.232h141.312c17.408 0 31.232 13.824 31.232 31.232 0 17.408-13.824 31.232-31.232 31.232H229.376zM832 358.912c-17.408 0-31.232-13.824-31.232-31.232v-354.816H136.192V795.136h664.576v-36.352c0-17.408 13.824-31.232 31.232-31.232s31.232 13.824 31.232 31.232v43.52c0 30.208-24.576 55.296-55.296 55.296H129.024c-30.208 0-55.296-24.576-55.296-55.296v-837.12c0-30.208 24.576-55.296 55.296-55.296h678.912c30.208 0 55.296 24.576 55.296 55.296V327.68c0 17.408-13.824 31.232-31.232 31.232zM941.056 686.08c-13.824 16.384-37.888 18.432-54.272 4.608L247.808 148.992c-16.384-13.824-18.432-37.888-4.608-54.272 7.68-9.216 18.432-13.824 29.184-13.824 8.704 0 17.408 3.072 24.576 9.216L936.448 631.808c16.384 13.824 17.92 37.888 4.608 54.272z"  horiz-adv-x="1024" />

    
    <glyph glyph-name="dingpi1" unicode="&#59223;" d="M959.488 697.344H221.696c-14.336 0-25.6-11.264-25.6-25.6v-737.792c0-14.336 11.264-25.6 25.6-25.6h737.792c14.336 0 25.6 11.264 25.6 25.6V671.744c0 14.336-11.776 25.6-25.6 25.6zM921.6-28.16H259.584V633.856H921.6v-662.016zM155.136 132.608H101.376V794.624H762.88v-56.32c0-5.632 4.608-10.24 10.24-10.24h43.008c5.632 0 10.24 4.608 10.24 10.24V832.512c0 14.336-11.264 25.6-25.6 25.6h-737.28c-14.336 0-25.6-11.264-25.6-25.6v-737.792c0-14.336 11.264-25.6 25.6-25.6h91.648c5.632 0 10.24 4.608 10.24 10.24v43.008c0 5.632-4.608 10.24-10.24 10.24zM338.944 376.832h502.784c11.264 0 20.48 5.12 20.48 11.264V447.488c0 6.144-9.216 11.264-20.48 11.264H338.944c-11.264 0-20.48-5.12-20.48-11.264v-59.392c0-6.144 9.216-11.264 20.48-11.264zM338.944 146.944h502.784c11.264 0 20.48 5.12 20.48 11.264v59.392c0 6.144-9.216 11.264-20.48 11.264H338.944c-11.264 0-20.48-5.12-20.48-11.264v-59.392c0-6.144 9.216-11.264 20.48-11.264z"  horiz-adv-x="1024" />

    
    <glyph glyph-name="bofang1" unicode="&#59243;" d="M187.392 864.256v-960.512c0-18.432 20.48-28.672 35.328-18.432l699.392 480.256c13.312 9.216 13.312 28.16 0 37.376L222.72 882.688c-14.848 10.752-35.328 0-35.328-18.432z"  horiz-adv-x="1024" />

    
    <glyph glyph-name="zanting2" unicode="&#59244;" d="M125.44 832.512h233.984v-897.536H125.44zM664.576 832.512h233.984v-897.536h-233.984z"  horiz-adv-x="1024" />

    
    <glyph glyph-name="jianqie02" unicode="&#59239;" d="M317.952 8.192c-44.544 0-80.384 35.84-80.384 80.384s35.84 80.384 80.384 80.384 80.384-35.84 80.384-80.384-35.84-80.384-80.384-80.384z m0 239.616c-88.064 0-159.232-71.168-159.232-159.232s71.168-159.232 159.232-159.232 159.232 71.168 159.232 159.232-71.168 159.232-159.232 159.232z m399.872-239.616c-44.544 0-80.384 35.84-80.384 80.384s35.84 80.384 80.384 80.384 80.384-35.84 80.384-80.384-35.84-80.384-80.384-80.384z m0 239.616c-88.064 0-159.232-71.168-159.232-159.232s71.168-159.232 159.232-159.232c88.064 0 159.232 71.168 159.232 159.232s-71.168 159.232-159.232 159.232z m-201.728 9.728c-26.624 0-48.128 21.504-48.128 48.128s21.504 48.128 48.128 48.128 48.128-21.504 48.128-48.128-21.504-48.128-48.128-48.128z m311.808 565.248l-309.248-399.872-325.632 416.256s-101.376-125.952-5.632-260.096c95.744-134.144 331.264-404.992 331.264-404.992l342.016 435.2s54.784 101.376-32.768 213.504z"  horiz-adv-x="1024" />

    
    <glyph glyph-name="shanchu031" unicode="&#59238;" d="M912.384 663.552H752.64V770.56c0 25.6-20.992 53.248-79.872 53.248H352.256c-58.88 0-79.872-27.648-79.872-53.248v-106.496H112.64c-22.016 0-39.936-17.92-39.936-39.936s17.92-39.936 39.936-39.936h39.936v-559.616c0-44.032 35.84-79.872 79.872-79.872h559.616c44.032 0 79.872 35.84 79.872 79.872V583.68h39.936c21.504 0.512 38.912 18.432 38.912 39.936s-16.896 39.424-38.4 39.936zM352.768 743.936h320v-79.872H352.768V743.936z m79.872-543.232c0-22.016-17.92-39.936-39.936-39.936s-39.936 17.92-39.936 39.936V463.872c0 22.016 17.92 39.936 39.936 39.936s39.936-17.92 39.936-39.936v-263.168z m239.616 0c0-22.016-17.92-39.936-39.936-39.936s-39.936 17.92-39.936 39.936V463.872c0.512 21.504 18.432 38.912 39.936 38.912s39.424-17.408 39.936-38.912v-263.168z"  horiz-adv-x="1024" />

    
    <glyph glyph-name="shanchu03" unicode="&#59237;" d="M392.704 160.768c22.016 0 39.936 17.92 39.936 39.936V463.872c0 22.016-17.92 39.936-39.936 39.936s-39.936-17.92-39.936-39.936v-263.168c0-22.016 17.92-39.936 39.936-39.936m239.616 0c22.016 0 39.936 17.92 39.936 39.936V463.872c-0.512 21.504-18.432 38.912-39.936 38.912-21.504 0-39.424-17.408-39.936-38.912v-263.168c0-22.016 17.92-39.936 39.936-39.936m280.064 502.784H752.64V770.56c0 25.6-20.992 53.248-79.872 53.248H352.256c-58.88 0-79.872-27.648-79.872-53.248v-106.496H112.64c-22.016 0-39.936-17.92-39.936-39.936s17.92-39.936 39.936-39.936h39.936v-559.616c0-44.032 35.84-79.872 79.872-79.872h559.616c44.032 0 79.872 35.84 79.872 79.872V583.68h39.936c21.504 0.512 38.912 18.432 38.912 39.936 0.512 22.016-16.896 39.424-38.4 39.936zM352.768 743.936h320v-79.872H352.768V743.936zM792.064 583.68v-559.616H232.448V583.68h559.616z"  horiz-adv-x="1024" />

    
    <glyph glyph-name="niantie02" unicode="&#59236;" d="M885.248 159.744c41.472 0 74.752 33.28 74.752 74.752h-74.752v-74.752z m0 149.504h74.752V384h-74.752v-74.752z m0 149.504h74.752V533.504h-74.752v-74.752z m0 149.504h74.752V682.496h-74.752v-74.24z m0 223.744v-74.752h74.752c0 41.472-33.28 74.752-74.752 74.752z m-148.992-74.752h74.752V832h-74.752v-74.752z m-74.752 74.752h-74.752v-74.752h74.752V832z m-149.504 0H437.248v-74.752H512V832z m-149.504 0c-41.472 0-74.752-33.28-74.752-74.752h74.752V832z m300.544-223.744H362.496V682.496H287.744v-74.752H137.216c-40.448 0-73.216-32.768-73.216-73.216v-525.824c0-40.448 32.768-73.216 73.216-73.216h525.824c40.448 0 73.216 32.768 73.216 73.216v151.04h74.752v74.752h-74.752V535.04c0 40.448-32.768 73.216-73.216 73.216z"  horiz-adv-x="1024" />

    
    <glyph glyph-name="youyi" unicode="&#59235;" d="M515.584 592.384H34.816v-425.984h480.768v-212.992l473.6 430.592-473.6 430.592z"  horiz-adv-x="1024" />

    
    <glyph glyph-name="zuoyi" unicode="&#59234;" d="M508.416 175.616h480.768V601.6H508.416V814.592L34.816 384l473.6-430.592z"  horiz-adv-x="1024" />

    
    <glyph glyph-name="yizhiding" unicode="&#59232;" d="M73.216 786.432h109.568v-804.352H73.216zM582.144 224.768h368.64V550.4h-368.64V713.216L219.648 384l362.496-329.216z"  horiz-adv-x="1024" />

    
    <glyph glyph-name="yizhiwei" unicode="&#59233;" d="M841.216 786.432h109.568v-804.352h-109.568zM441.856 543.232h-368.64v-325.632h368.64v-162.816l362.496 329.216-362.496 329.216z"  horiz-adv-x="1024" />

    
    <glyph glyph-name="chadanpaichan" unicode="&#59002;" d="M327.936 378.112v-445.184c0-43.52 17.408-60.928 60.928-60.928h844.288c47.872 0 65.28 17.408 65.28 65.28V378.112H327.936z m304.64-445.184h-239.36v165.376h239.36v-165.376z m0 226.304h-239.36v161.024h239.36v-161.024z m60.928 156.672h239.36v-161.024h-239.36v161.024z m243.712-382.976h-239.36v165.376h239.36v-165.376z m300.288 4.352h-239.36v161.024h239.36v-161.024z m0 230.656c0-4.352-8.704-13.056-13.056-13.056h-230.656v165.376h243.712v-152.32zM1233.152 896H388.864c-43.52 0-60.928-17.408-60.928-60.928v-343.808h970.496V830.72c0 47.872-17.408 65.28-65.28 65.28z m-235.008-182.784h239.36v-161.024h-239.36V713.216z m-304.64 0h239.36v-161.024h-239.36V713.216z m-300.288 0h239.36v-161.024c-73.984 0-147.968-4.352-221.952 0-8.704 0-17.408 8.704-17.408 13.056V713.216zM274.176 433.664L0 668.16v-468.736z"  horiz-adv-x="1298" />

    
    <glyph glyph-name="tuichuxianxingicon" unicode="&#59190;" d="M548.3 524.7c0-19.6-15.9-35.4-35.4-35.4-19.6 0-35.4 15.9-35.4 35.4V808c0 19.6 15.9 35.4 35.4 35.4 19.6 0 35.4-15.9 35.4-35.4v-283.3z m130.6 150.9c-17.4 9-24.1 30.4-15.1 47.8 9 17.4 30.4 24.1 47.8 15.1 176.9-91.6 268.2-292.3 221.1-485.8C885.6 59.1 712.2-77.1 513-77.1S140.3 59.1 93.2 252.6c-47.1 193.6 44.2 394.2 221.1 485.8 11.2 5.8 24.7 5.2 35.4-1.6a35.23 35.23 0 0 0 16.3-31.4c-0.6-12.6-7.8-24-19.1-29.9C199 599 122.6 431.2 162 269.4c39.4-161.8 184.4-275.8 350.9-275.8s311.5 113.9 350.9 275.8S826.9 599 678.9 675.6z"  horiz-adv-x="1024" />

    
    <glyph glyph-name="shanchushuzixianxingicon" unicode="&#59189;" d="M458.3 216.79999999999995c5.9-5.9 14.8-8.9 20.8-8.9 5.9 0 14.8 3 20.8 8.9l124.6 124.6 124.6-124.6c5.9-5.9 14.8-8.9 20.8-8.9 5.9 0 14.8 3 20.8 8.9 11.9 11.9 11.9 29.7 0 41.5L665.9 382.9l124.6 124.6c11.9 11.9 11.9 29.7 0 41.5-11.9 11.9-29.7 11.9-41.5 0L624.4 424.4 499.8 549c-11.9 11.9-29.7 11.9-41.5 0s-11.9-29.7 0-41.5l124.6-124.6-124.6-124.6c-8.9-11.8-8.9-29.6 0-41.5zM967.5 689.1H327.2c-12.1 0-24.3 0-317.9-305.8-9.7-9.7-9.7-24.3 0-34 296-298.5 305.7-298.5 317.9-298.5h640.3c26.7 0 48.5 21.8 48.5 48.5V640.6c0 26.7-21.8 48.5-48.5 48.5z m0-578.4H345.8c-29.1 21.8-155.3 136.7-271.8 258C190.5 490 319.1 607.2 345.8 629h621.7v-518.3z"  horiz-adv-x="1024" />

    
    <glyph glyph-name="quxiaowanchengCduan" unicode="&#59188;" d="M510.464-61.440000000000055c-245.76 0-445.952 200.192-445.952 445.952s200.192 445.952 445.952 445.952c62.976 0 123.392-12.8 180.736-37.888 17.408-7.68 25.088-28.16 17.408-45.056-7.68-17.408-28.16-25.088-45.056-17.408-48.128 21.504-99.84 32.256-153.088 32.256C302.592 761.856 133.12 592.384 133.12 384.512s169.472-377.344 377.344-377.344 377.344 169.472 377.344 377.344a34.304 34.304 0 0 0 68.608 0c0.512-245.76-199.68-445.952-445.952-445.952zM304.64 144.38400000000001c-8.704 0-17.408 3.584-24.064 10.24-13.312 13.312-13.312 35.328 0 48.64L692.224 614.4c13.312 13.312 35.328 13.312 48.64 0s13.312-35.328 0-48.64l-411.648-411.648c-6.656-6.144-15.36-9.728-24.576-9.728zM716.288 144.38400000000001c-8.704 0-17.408 3.584-24.064 10.24L280.576 566.2719999999999c-13.312 13.312-13.312 35.328 0 48.64s35.328 13.312 48.64 0l411.648-411.648c13.312-13.312 13.312-35.328 0-48.64-6.656-6.656-15.36-10.24-24.576-10.24z"  horiz-adv-x="1024" />

    
    <glyph glyph-name="wanchengCduan" unicode="&#59187;" d="M512.512-59.39200000000005c-244.224 0-443.392 198.656-443.392 443.392s198.656 443.392 443.392 443.392c62.464 0 122.88-12.8 179.2-37.888 17.408-7.68 24.576-28.16 17.408-45.056-7.68-17.408-27.648-25.088-45.056-17.408-47.616 21.504-98.816 32.256-152.064 32.256-206.848 0-374.784-167.936-374.784-374.784s167.936-374.784 374.784-374.784 374.784 167.936 374.784 374.784c0 18.944 14.848 33.792 33.792 33.792 18.944 0 33.792-14.848 33.792-33.792 1.024-245.248-197.632-443.904-441.856-443.904zM484.352 196.60799999999995c-8.704 0-17.408 3.072-24.064 10.24L267.264 399.36c-13.312 13.312-13.312 34.816 0 48.128s34.816 13.312 48.128 0l168.448-168.448 361.472 361.472c13.312 13.312 34.816 13.312 48.128 0 13.312-13.312 13.312-34.816 0-48.128l-385.536-385.536c-6.144-7.168-14.848-10.24-23.552-10.24z"  horiz-adv-x="1024" />

    
    <glyph glyph-name="hebingxianxingicon" unicode="&#59186;" d="M826.368 594.944H655.36v-70.144h171.008c19.456 0 34.816-15.872 34.816-34.816v-419.84c0-19.456-15.872-34.816-34.816-34.816h-419.84c-19.456 0-34.816 15.872-34.816 34.816V524.8h212.48V594.944H301.568v-524.8c0-57.856 47.104-104.96 104.96-104.96h419.84c57.856 0 104.96 47.104 104.96 104.96v419.84c0 57.856-47.104 104.96-104.96 104.96zM616.448 804.864h-419.84c-57.856 0-104.96-47.104-104.96-104.96v-419.84c0-57.856 47.104-104.96 104.96-104.96h175.616v70.144H196.608c-19.456 0-34.816 15.872-34.816 34.816v419.84c0 19.456 15.872 34.816 34.816 34.816h419.84c19.456 0 34.816-15.872 34.816-34.816v-454.656H438.272v-70.144h283.136V699.904c0 57.856-47.104 104.96-104.96 104.96z"  horiz-adv-x="1024" />

    
    <glyph glyph-name="bianjixianxingicon" unicode="&#59185;" d="M407.04 228.864c-9.728 0-18.944 3.584-26.112 10.752-14.336 14.336-14.848 37.888 0 52.736l437.76 440.32c14.336 14.336 37.888 14.848 52.736 0s14.848-37.888 0-52.736l-437.76-440.32c-7.168-7.168-16.896-10.752-26.624-10.752zM808.448-24.064H212.48c-61.44 0-111.616 50.176-111.616 111.616V684.032c0 61.44 50.176 111.616 111.616 111.616h344.064c20.48 0 37.376-16.896 37.376-37.376s-16.896-37.376-37.376-37.376H212.48c-20.48 0-37.376-16.896-37.376-37.376v-595.968c0-20.48 16.896-37.376 37.376-37.376h595.968c20.48 0 37.376 16.896 37.376 37.376V454.656c0 20.48 16.896 37.376 37.376 37.376s37.376-16.896 37.376-37.376v-367.104c-0.512-61.44-50.688-111.616-112.128-111.616z"  horiz-adv-x="1024" />

    
    <glyph glyph-name="fuzhixianxingicon" unicode="&#59184;" d="M585.728 126.46400000000006H218.624c-60.928 0-110.08 49.664-110.08 110.08V677.888c0 60.928 49.664 110.08 110.08 110.08h367.616c60.928 0 110.08-49.664 110.08-110.08v-441.344c0-60.928-49.664-110.08-110.592-110.08zM218.624 714.752c-20.48 0-36.864-16.384-36.864-36.864v-441.344c0-20.48 16.384-36.864 36.864-36.864h367.616c20.48 0 36.864 16.384 36.864 36.864V677.888c0 20.48-16.384 36.864-36.864 36.864H218.624zM806.4-20.991999999999962H438.784c-60.928 0-110.08 46.08-110.08 102.4h73.728c0-15.36 16.896-28.672 36.864-28.672h367.616c19.968 0 36.864 13.312 36.864 28.672V539.136c0 15.36-16.896 28.672-36.864 28.672h-76.8V641.024h76.8c60.928 0 110.08-46.08 110.08-101.888v-457.728c-0.512-56.32-49.664-102.4-110.592-102.4z"  horiz-adv-x="1024" />

    
    <glyph glyph-name="daochuxianxingicon" unicode="&#59182;" d="M860.672 325.632c-0.512-0.512-1.024-1.536-1.024-2.56v-221.184c0-20.992-16.896-37.888-37.888-37.888H201.728c-20.992 0-37.888 16.896-37.888 37.888v205.824c0 30.208-37.888 51.2-68.608 17.92-0.512-0.512-1.024-1.536-1.024-2.56v-253.952c0-41.472 33.28-74.752 74.752-74.752h685.568c41.472 0 74.752 33.28 74.752 74.752v238.592c0 30.208-37.888 51.2-68.608 17.92zM929.28 643.584l-10.24-18.944c-1.024-2.56-2.048-4.608-3.584-7.168l-85.504-162.304c-8.704-16.896-29.696-24.064-46.592-14.848-17.408 8.704-24.064 29.696-14.848 46.592l58.368 110.08c-199.168-25.6-308.224-133.632-331.264-328.704-2.048-18.944-19.456-32.768-38.912-30.208-18.944 2.56-32.768 18.944-30.208 38.912 27.136 226.816 156.16 357.376 384 388.608l-84.48 85.504c-13.312 13.824-13.312 35.84 0.512 49.152 13.824 13.312 35.84 13.312 49.152-0.512l153.6-156.16z"  horiz-adv-x="1024" />

    
    <glyph glyph-name="daoruxianxingicon" unicode="&#59183;" d="M860.672 325.632c-0.512-0.512-1.024-1.536-1.024-2.56v-221.184c0-20.992-16.896-37.888-37.888-37.888H201.728c-20.992 0-37.888 16.896-37.888 37.888v205.824c0 30.208-37.888 51.2-68.608 17.92-0.512-0.512-1.024-1.536-1.024-2.56v-253.952c0-41.472 33.28-74.752 74.752-74.752h685.568c41.472 0 74.752 33.28 74.752 74.752v238.592c0 30.208-37.888 51.2-68.608 17.92zM523.264 272.384l18.944 10.24c2.56 1.024 4.608 2.048 7.168 3.584l162.304 85.504c16.896 8.704 24.064 29.696 14.848 46.592-8.704 17.408-29.696 24.064-46.592 14.848l-110.08-58.368c25.6 199.168 133.632 308.224 328.704 331.264 18.944 2.048 32.768 19.456 30.208 38.912-2.56 18.944-18.944 32.768-38.912 30.208-226.816-27.136-357.376-156.16-388.608-384L416.256 475.648c-13.824 13.312-35.84 13.312-49.152-0.512s-13.312-35.84 0.512-49.152l155.648-153.6z"  horiz-adv-x="1024" />

    
    <glyph glyph-name="dayinxianxingicon-copy" unicode="&#60264;" d="M946.688 481.792c0 45.568-36.864 82.432-82.432 82.432h-61.952V778.752c0 1.024-1.024 2.048-2.048 2.048H227.84c-1.024 0-2.048-1.024-2.048-2.048v-214.016H163.84c-45.568 0-82.432-36.864-82.432-82.432v-278.016H225.28v-216.576h577.024v216.576h144.384V481.792zM297.472 709.12h432.64v-144.384H297.472V709.12z m433.152-649.728H297.472v216.576h432.64v-216.576z m144.384 216.576h-72.192V348.15999999999997H225.28v-72.192H153.088V481.792c0 5.632 4.608 10.24 10.24 10.24h700.928c5.632 0 10.24-4.608 10.24-10.24v-205.824z"  horiz-adv-x="1024" />

    
    <glyph glyph-name="tianjia" unicode="&#59181;" d="M775.68 422.912h-224.768V647.68H473.6v-224.768H248.832v-77.312h224.768v-224.768h77.312v224.768h224.768zM512.512-19.456c-223.232 0-403.968 180.736-403.968 403.968S289.28 788.48 512.512 788.48 916.48 607.744 916.48 384.512s-181.248-403.968-403.968-403.968z m0-70.144c261.632 0 474.112 212.48 474.112 474.112S774.144 858.624 512.512 858.624 38.4 646.144 38.4 384.512s211.968-474.112 474.112-474.112z"  horiz-adv-x="1024" />

    
    <glyph glyph-name="dianhua" unicode="&#59168;" d="M774.656 476.16c0-19.968 13.312-33.792 33.792-33.792 20.48 0 33.792 13.312 33.792 33.792-0.512 111.616-90.624 202.24-202.752 202.752-20.48 0-33.792-13.312-33.792-33.792s13.312-33.792 33.792-33.792c74.752-0.512 135.168-60.928 135.168-135.168zM909.824 476.16c0-19.968 13.312-33.792 33.792-33.792 20.48 0 33.792 13.312 33.792 33.792 0 185.856-152.064 337.408-337.408 337.408-20.48 0-33.792-13.312-33.792-33.792s13.312-33.792 33.792-33.792c148.48 0 269.824-121.344 269.824-269.824zM318.976 509.952c7.68-47.616 49.152-227.84 241.664-316.416 8.704-4.096 18.432-3.072 26.112 2.56 27.136 19.456 90.112 64.512 102.912 73.728 19.456 14.336 54.784 27.648 83.968-0.512l153.6-143.872s22.528-36.864 6.656-56.832C889.344 14.848 788.48-97.28 788.48-97.28s-18.944-23.04-56.832-9.728c-61.44 22.016-269.824 128-437.248 326.656-163.84 194.56-207.36 361.984-239.104 479.232-10.752 38.4-4.608 73.216 24.576 86.528C117.76 802.816 281.088 879.104 281.088 879.104s37.888 10.24 54.272-18.944c16.384-29.184 108.032-155.136 119.296-175.104 13.312-23.04 5.12-42.496-6.656-52.736-14.336-12.288-95.232-80.384-122.368-102.912-5.12-4.608-8.192-12.288-6.656-19.456z"  horiz-adv-x="1024" />

    
    <glyph glyph-name="dengdai" unicode="&#58887;" d="M754.688 33.79200000000003c9.728-16.384 4.096-37.888-12.288-47.616l-0.512-0.512c-16.384-9.728-37.888-4.096-47.616 12.288 0 0 0 0.512-0.512 0.512-9.728 16.384-4.608 37.888 11.776 47.616 0 0 0.512 0 0.512 0.512 17.408 9.728 38.912 4.096 48.64-12.8zM547.328-40.960000000000036c0-18.944-15.872-35.328-35.84-35.328-19.456 0-35.328 15.872-35.328 35.328v24.576c1.024 19.456 17.92 34.816 37.376 33.28 17.92-1.024 32.768-15.36 33.28-33.28v-24.576z m-216.576 39.424c-9.728-16.896-30.72-23.04-47.616-13.312 0 0-0.512 0-0.512 0.512-16.896 9.216-23.04 30.72-13.312 47.616 0 0.512 0.512 0.512 0.512 1.024l26.112 45.568c10.24 16.896 31.744 22.528 48.64 13.312 16.896-9.728 22.528-31.744 12.8-48.128l-26.624-46.592z m-168.448 142.336c-16.896-9.728-38.4-3.584-48.128 12.8-9.728 16.896-4.096 38.4 12.288 48.128l70.144 40.96c16.896 9.728 38.4 3.584 48.128-12.8 9.728-16.896 3.584-38.4-12.8-48.128l-69.632-40.96zM87.04 348.672c-19.456 0-35.328 15.872-35.328 34.816 0 19.456 15.36 35.328 35.328 35.328h109.568c19.456 0 35.328-15.872 35.328-35.328 0-19.456-15.36-35.328-34.816-35.328h-0.512l-109.568 0.512z m39.424 217.6c-16.384 9.216-22.528 30.208-13.312 47.104 0 0.512 0.512 0.512 0.512 1.024 9.728 16.896 30.72 23.04 47.616 13.312 0 0 0.512 0 0.512-0.512L281.088 558.0799999999999c16.896-9.728 22.528-30.72 12.8-47.616-9.728-16.896-31.232-22.528-48.128-12.8L126.464 566.2719999999999z m142.848 167.936l82.944-143.872c9.728-16.896 31.232-22.528 48.128-12.8 16.896 9.728 22.528 31.232 12.8 48.128L329.728 769.5360000000001c-10.24 16.384-32.256 20.992-48.64 10.752-14.848-9.728-20.48-29.696-11.776-46.08zM476.672 808.96c0 19.456 15.872 34.816 35.328 35.328 19.456 0 35.84-15.872 35.84-35.328v-165.888c0-19.456-15.872-35.84-35.84-35.84-19.456 0-35.328 15.872-35.328 35.328v0.512V808.96z m217.088-39.424c9.728 16.896 31.232 22.528 48.128 12.8 16.896-9.216 23.04-30.72 13.824-47.104 0-0.512-0.512-0.512-0.512-1.024l-82.944-143.872c-9.728-16.896-31.232-22.528-48.128-12.8-16.896 10.24-22.528 31.744-12.8 48.64l82.432 143.36z m168.96-142.336l-144.384-82.944c-16.896-9.728-22.528-31.232-13.312-48.128 10.24-16.384 31.232-22.016 48.128-12.8l144.384 82.944c16.896 9.728 22.528 31.232 12.8 47.616V614.4c-9.216 16.896-30.208 23.04-47.104 13.824 0-0.512-0.512-1.024-0.512-1.024zM936.96 419.328c19.968 0 35.328-15.872 35.328-35.328 0-19.456-15.36-34.816-34.816-35.328h-166.4c-19.456 0-35.328 15.872-35.328 35.328 0 19.456 15.872 35.328 35.328 35.328H936.96z"  horiz-adv-x="1024" />

    
    <glyph glyph-name="shengchankacunchu" unicode="&#59167;" d="M513.024 896C231.424 896 2.56 667.136 2.56 385.024c0-282.112 228.864-510.976 510.976-510.976 282.112 0 510.464 229.376 510.464 510.976S795.136 896 513.024 896zM303.616 633.344c0 20.48 16.896 37.376 37.376 37.376h344.576c20.48 0 37.376-16.896 37.376-37.376v-15.872c-10.24 8.192-23.04 12.8-37.376 12.8H340.992c-13.824 0-27.136-4.608-37.376-12.8v15.872z m0-64.512c0 20.48 16.896 37.376 37.376 37.376h344.576c20.48 0 37.376-16.896 37.376-37.376V552.96c-10.24 8.192-23.04 12.8-37.376 12.8H340.992c-13.824 0-27.136-4.608-37.376-12.8v15.872z m419.328-64v-229.888c0-20.48-16.896-37.376-37.376-37.376H340.992c-20.48 0-37.376 16.896-37.376 37.376V504.832c0 20.48 16.896 37.376 37.376 37.376h344.576c20.48-0.512 37.376-16.896 37.376-37.376z m125.44-354.816c0-19.456-15.872-35.328-35.328-35.328H212.992c-19.456 0-35.328 15.872-35.328 35.328V302.08c0 19.456 15.872 35.328 35.328 35.328h59.392c5.12 0 9.216-4.096 9.216-9.216v-72.704c0-23.04 18.944-41.984 41.984-41.984h378.88c23.04 0 41.984 18.944 41.984 41.984V327.68c0 5.12 4.096 9.216 9.216 9.216h59.392c19.456 0 35.328-15.872 35.328-35.328v-151.552zM652.8 454.656h-158.72v12.288c0 4.096-3.584 7.68-7.68 7.68H430.592c-4.096 0-7.68-3.584-7.68-7.68v-12.288h-44.544c-4.608 0-8.192-3.584-8.192-8.192v-15.36c0-4.608 3.584-8.192 8.192-8.192h44.544v-12.288c0-4.096 3.584-7.68 7.68-7.68H486.4c4.096 0 7.68 3.584 7.68 7.68v12.288h158.72c4.608 0 8.192 3.584 8.192 8.192v15.36c0 4.608-3.584 8.192-8.192 8.192zM652.8 350.208h-45.056v12.288c0 4.096-3.584 7.68-7.68 7.68h-55.296c-4.096 0-7.68-3.584-7.68-7.68v-12.288h-158.72c-4.608 0-8.192-3.584-8.192-8.192v-15.36c0-4.608 3.584-8.192 8.192-8.192h158.208v-12.288c0-4.096 3.584-7.68 7.68-7.68h55.296c4.096 0 7.68 3.584 7.68 7.68v12.288h45.056c4.608 0 8.192 3.584 8.192 8.192v15.36c0.512 4.608-3.072 8.192-7.68 8.192z"  horiz-adv-x="1024" />

    
    <glyph glyph-name="jiaobanbaogong" unicode="&#59165;" d="M355.84 641.024h5.12c15.36 0 27.648 12.288 27.648 27.648V737.28c0 15.36-12.288 27.648-27.648 27.648h-5.12c-15.36 0-27.648-12.288-27.648-27.648v-68.608c0.512-15.36 12.8-27.648 27.648-27.648zM669.696 641.024h5.12c15.36 0 27.648 12.288 27.648 27.648V737.28c0 15.36-12.288 27.648-27.648 27.648h-5.12c-15.36 0-27.648-12.288-27.648-27.648v-68.608c0-15.36 12.288-27.648 27.648-27.648zM762.368 715.264h-39.936v-47.104c0-26.112-21.504-47.616-47.616-47.616h-5.12c-26.112 0-47.616 21.504-47.616 47.616v47.104H409.088v-47.104c0-26.112-21.504-47.616-47.616-47.616h-5.12c-26.112 0-47.616 21.504-47.616 47.616v47.104h-39.936c-59.904 0-108.032-48.64-108.032-108.032v-60.928H870.4V607.232c0 59.904-48.64 108.032-108.032 108.032zM160.256 111.616c0-59.904 48.64-108.032 108.032-108.032h493.568c59.904 0 108.032 48.64 108.032 108.032V479.744H160.256v-368.128z m177.152 248.32L454.144 424.96c7.68 4.096 16.896-1.024 16.896-9.728v-46.08h136.704c46.08 0 83.968-33.28 91.136-77.312-17.92 23.552-46.592 38.912-78.336 38.912H471.04v-45.568c0-8.704-9.216-13.824-16.896-9.728l-117.248 65.024c-7.68 4.096-7.68 15.36 0.512 19.456zM410.112 189.44h150.016v45.568c0 8.704 9.216 13.824 16.896 9.728l117.248-65.024c7.68-4.096 7.68-15.36 0-19.456l-117.248-65.024c-7.68-4.096-16.896 1.024-16.896 9.728v46.08H422.912c-46.08 0-83.968 33.28-91.136 77.312 17.408-23.552 46.08-38.912 78.336-38.912z"  horiz-adv-x="1024" />

    
    <glyph glyph-name="gongyi1" unicode="&#59164;" d="M876.544 234.496l-367.104-204.8-369.152 206.848-97.792-55.296L507.904-76.8l464.896 258.048-96.256 53.248zM166.4 569.344v-281.6l85.504-42.496V569.344c8.704 6.144 16.896 14.848 23.552 25.6 4.096 10.752 8.704 21.504 8.704 29.696l223.744 130.048 256-147.456v-296.448l-204.8-117.248c-4.096 4.096-10.752 8.704-14.848 10.752-36.352 19.456-80.896 4.096-100.352-31.744-19.456-36.352-4.096-80.896 31.744-100.352 36.352-19.456 80.896-4.096 100.352 31.744v2.048l272.896 157.696V656.896L507.904 853.504 239.104 697.344c-36.352 14.848-76.8 0-96.256-34.304-16.896-31.744-6.144-74.24 23.552-93.696zM461.824 461.312L358.4 517.12c-11.776 6.144-26.112-2.048-26.112-15.36v-113.664c0-16.896 9.216-32.768 23.552-41.472l110.592-65.536c11.776-7.168 26.624 1.536 26.624 14.848V409.6c0 21.504-11.776 41.472-31.232 51.712zM534.528 485.376L646.144 542.72c12.8 6.656 12.8 24.576 0.512 31.232l-118.272 64c-14.336 7.68-31.232 7.68-45.568 0L367.616 577.024c-12.288-6.656-12.288-24.576 0-31.232l112.128-59.904c16.896-8.704 37.376-9.216 54.784-0.512zM548.352 279.04l109.568 60.416c15.36 8.704 25.088 24.576 25.088 42.496V501.76c0 13.312-14.336 21.504-26.112 15.36L552.96 461.312c-19.456-10.24-31.232-30.208-31.232-52.224v-114.688c0.512-13.312 14.848-21.504 26.624-15.36z"  horiz-adv-x="1024" />

    
    <glyph glyph-name="qiyezhinenghua" unicode="&#59162;" d="M421.888 715.264c98.304-42.496 157.696-68.608 193.536-84.992 1.024-28.672 24.064-52.224 52.736-52.224 29.184 0 53.248 23.552 53.248 53.248 0 29.184-23.552 53.248-53.248 53.248-9.728 0-19.456-3.072-27.136-7.68-36.352 16.384-96.256 43.52-198.656 87.04-72.704 31.232-137.728 32.256-195.584 6.656-102.912-46.08-137.728-175.104-139.776-180.224l55.808-0.512c0.512 1.536 30.208 97.28 107.008 132.608 43.008 19.968 94.208 17.408 152.064-7.168zM606.208 716.288c57.856 24.576 105.472 26.112 148.48 6.656 76.8-35.84 106.496-131.584 106.496-132.096l55.808 0.512c-1.024 5.12-36.352 133.632-139.776 179.712-57.856 25.6-123.392 24.576-195.584-6.144-17.408-7.168-31.744-13.312-47.616-20.48 0 0 3.584-1.536 72.192-28.16zM359.424 606.72c28.16 13.312 59.904 33.28 121.344 60.928l-67.072 28.16c-38.4-17.408-56.832-30.72-77.824-40.96-8.704 6.144-19.456 9.216-30.208 9.216-29.184 0-53.248-23.552-53.248-53.248 0-29.184 23.552-53.248 53.248-53.248 28.672-0.512 51.2 20.992 53.76 49.152zM861.696 170.49599999999998c-1.024-1.024-30.72-96.768-107.008-132.608-43.008-19.968-94.208-17.408-152.064 7.168-98.304 42.496-157.696 68.608-193.536 84.992-1.024 28.672-24.064 52.224-52.736 52.224-29.184 0-53.248-23.552-53.248-53.248 0-29.184 23.552-53.248 53.248-53.248 9.728 0 19.456 3.072 27.136 7.68 36.352-16.384 96.256-43.52 198.656-87.04 72.704-31.232 137.728-32.256 195.584-6.144 102.912 46.08 137.728 175.104 139.776 179.712l-55.808 0.512zM665.088 154.11199999999997c-28.16-13.312-59.904-33.28-121.344-60.928l67.072-28.16c38.4 17.408 56.832 30.72 77.824 40.96 8.704-5.632 18.944-9.216 30.208-9.216 29.184 0 53.248 23.552 53.248 53.248 0 29.184-23.552 53.248-53.248 53.248-28.672 0.512-51.712-21.504-53.76-49.152M417.792 44.54399999999998c-57.856-24.576-105.472-26.112-148.48-6.656-76.8 35.84-106.496 131.584-106.496 132.096l-55.808-0.512c1.536-5.12 36.352-133.632 139.776-179.712 57.856-26.112 123.392-24.576 195.584 6.144 17.408 7.168 31.744 13.312 47.616 20.48 0.512 0.512-3.072 1.536-72.192 28.16M214.528 390.656h164.864v-162.304H214.528zM429.568 480.256h164.864v-251.904H429.568zM644.608 556.0319999999999h164.864v-327.68h-164.864zM107.008 528.384h118.784V409.6H107.008z"  horiz-adv-x="1024" />

    
    <glyph glyph-name="chexiaoxiugai" unicode="&#59158;" d="M431.104 568.832c369.664 27.136 489.984-382.976 489.984-510.976v-31.744c-120.32 287.232-399.872 287.232-489.984 287.232v-185.856l-325.12 307.2 325.632 307.2-0.512-173.056z"  horiz-adv-x="1024" />

    
    <glyph glyph-name="xiugaizhuangtai" unicode="&#59155;" d="M314.368 835.5840000000001v-128h42.496c11.776 0 21.504-9.728 21.504-21.504v-277.504c0-11.776-9.728-21.504-21.504-21.504h-42.496v-449.024h-128V386.56h-42.496c-11.776 0-21.504 9.728-21.504 21.504V685.568c0 11.776 9.728 21.504 21.504 21.504h42.496v128h128z m523.264 0v-449.024h42.496c11.776 0 21.504-9.728 21.504-21.504v-277.504c0-11.776-9.728-21.504-21.504-21.504h-42.496v-128h-128v128h-42.496c-11.776 0-21.504 9.728-21.504 21.504v277.504c0 11.776 9.728 21.504 21.504 21.504h42.496V835.5840000000001h128z"  horiz-adv-x="1024" />

    
    <glyph glyph-name="jihuahuizongpeizhi" unicode="&#59154;" d="M656.176139 219.165665a46.08 46.08 0 1 1 65.165823 65.168098 46.08 46.08 0 1 1-65.165823-65.168098ZM510.976 895.488C229.376 895.488 0 666.624 0 384s229.376-511.488 511.488-511.488c282.624 0 510.976 229.888 510.976 511.488S793.6 895.488 510.976 895.488zM583.68 702.976h41.984l143.36-133.12v-54.784H634.88c-28.16 0-51.2 23.04-51.2 51.2V702.976z m-229.376-599.04c-55.808 0-100.864 45.056-100.864 100.864V602.624c0 55.808 45.056 100.864 100.864 100.864H558.08v-162.304c0-28.16 23.04-51.2 51.2-51.2h159.744V399.36c-23.552 12.8-50.688 19.968-78.848 19.968-11.264 0-22.528-1.024-33.28-3.072-2.048 0.512-4.608 0.512-6.656 0.512H372.736c-19.968 0-35.84-15.872-35.84-35.84s15.872-35.84 35.84-35.84h178.176c-11.776-17.408-19.968-36.864-24.576-57.856h-153.6c-19.968 0-35.84-15.872-35.84-35.84s15.872-35.84 35.84-35.84H527.36c10.752-48.128 42.496-88.576 84.992-111.104H354.304z m464.896 107.008l-26.624-46.08c-2.56-2.56-4.608-4.608-7.168-2.56l-33.792 12.288c-4.608-4.608-14.336-7.168-21.504-12.288l-4.608-33.792c0-2.56-4.608-4.608-7.168-4.608h-53.248c-4.608 0-7.168 2.56-7.168 4.608l-4.608 33.792c-7.168 2.56-14.336 7.168-21.504 12.288l-33.792-12.288c-2.56-2.56-7.168 0-7.168 0l-26.624 46.08c-2.56 2.56-2.56 4.608 0 7.168l26.624 21.504V261.12l-26.624 21.504c-2.56 2.56-2.56 7.168-2.56 7.168l26.624 46.08c2.56 2.56 4.608 2.56 9.728 2.56l31.232-12.288c7.168 4.608 14.336 9.728 21.504 12.288l4.608 36.352c0 2.56 4.608 4.608 7.168 4.608h53.248c2.56 0 4.608-2.56 4.608-7.168l4.608-33.792c7.168-2.56 14.336-7.168 21.504-12.288l33.792 12.288c2.56 2.56 7.168 0 7.168 0l26.624-46.08c2.56-2.56 2.56-4.608 0-7.168l-26.624-21.504v-24.576l31.232-21.504v-6.656z"  horiz-adv-x="1024" />

    
    <glyph glyph-name="gongzuorili" unicode="&#59153;" d="M510.976 895.488C229.376 895.488 0 666.624 0 384s229.376-511.488 511.488-511.488c282.624 0 510.976 229.888 510.976 511.488S793.6 895.488 510.976 895.488z m116.736-244.736c0 6.144 5.12 11.264 11.264 11.264h41.984c6.144 0 11.264-5.12 11.264-11.264V558.08c0-6.144-5.12-11.264-11.264-11.264h-41.984c-6.144 0-11.264 5.12-11.264 11.264V650.752z m-297.472 0c0 6.144 5.12 11.264 11.264 11.264H384c6.144 0 11.264-5.12 11.264-11.264V558.08c0-6.144-5.12-11.264-11.264-11.264h-41.984c-6.144 0-11.264 5.12-11.264 11.264V650.752z m467.968-477.696c0-36.864-30.208-67.072-67.072-67.072H291.84c-36.864 0-67.072 30.208-67.072 67.072V550.912c0 36.864 30.208 67.072 67.072 67.072h14.848V558.08c0-19.456 15.872-34.816 34.816-34.816H384c19.456 0 34.816 15.872 34.816 34.816V617.984H604.16V558.08c0-19.456 15.872-34.816 34.816-34.816h42.496c19.456 0 34.816 15.872 34.816 34.816V617.984h14.848c36.864 0 67.072-30.208 67.072-67.072v-377.856zM282.624 185.856c0-12.8 10.24-23.04 23.04-23.04h412.16c12.8 0 23.04 10.24 23.04 23.04V423.936H282.624v-238.08z m361.984 151.04c23.552 0 43.008-19.456 43.008-43.008s-19.456-43.008-43.008-43.008-43.008 19.456-43.008 43.008 18.944 43.008 43.008 43.008z m-133.12 0c23.552 0 43.008-19.456 43.008-43.008s-19.456-43.008-43.008-43.008-43.008 19.456-43.008 43.008 19.456 43.008 43.008 43.008z m-133.12 0c23.552 0 43.008-19.456 43.008-43.008s-19.456-43.008-43.008-43.008c-23.552 0-43.008 19.456-43.008 43.008s19.456 43.008 43.008 43.008z"  horiz-adv-x="1024" />

    
    <glyph glyph-name="shebeiweihu" unicode="&#59152;" d="M510.976 895.488C229.376 895.488 0 666.624 0 384s229.376-511.488 511.488-511.488c282.624 0 510.976 229.888 510.976 511.488S793.6 895.488 510.976 895.488zM186.368 449.536c-13.312 13.824-20.992 31.232-26.624 49.664-3.584 11.776-4.608 23.552-7.168 35.328v39.936c2.048 3.072 4.096 2.048 6.144 0l79.872-64.512c2.56-2.048 2.56-4.096 0.512-6.656-14.848-17.92-29.184-36.352-44.032-54.272-3.072-4.608-5.632-2.56-8.704 0.512z m144.384-23.552c-36.352-17.408-73.216-17.408-109.568-0.512-7.68 3.584-8.192 4.096-2.56 10.752 27.136 33.28 54.272 67.072 81.408 100.352 10.752 12.8 9.728 24.576-3.584 35.328-28.16 22.528-56.32 45.568-83.968 68.096-7.168 5.632-6.656 6.656 2.048 10.24 14.336 5.632 29.696 9.216 45.056 10.752 2.048 0 4.096 0.512 6.656 1.024h25.088c9.216-1.536 18.944-2.56 28.16-5.12 46.592-14.336 71.168-47.616 80.896-93.184 4.096-17.92 3.072-35.84-1.536-53.248-1.536-6.144 0-9.216 4.608-12.8 28.672-20.992 56.832-42.496 84.992-63.488 10.24-7.68 17.408-30.72 13.312-43.008-1.024-2.56-3.072-4.608-5.12-6.144-10.24-9.216-19.968-18.944-30.208-28.16-9.728-8.704-19.968-9.216-30.72-1.024-30.208 23.04-60.928 46.592-91.136 70.144-5.12 2.048-8.704 2.56-13.824 0z m505.856-275.968c-7.68-10.752-16.384-21.504-25.088-31.744-4.608-6.144-11.264-9.216-18.432-11.264h-8.704c-6.656 2.048-12.288 5.632-17.92 10.24-17.92 14.848-35.84 29.184-53.76 43.52-4.096 3.072-5.12 5.12-0.512 9.216 20.992 18.944 41.472 37.888 62.464 57.344 4.096 4.096 7.168 4.608 11.776 0.512 14.848-12.8 30.208-24.576 45.056-36.864 12.288-11.264 14.848-27.648 5.12-40.96z m33.28 404.992c-9.216-17.92-13.312-36.864-16.896-56.32-5.12-25.6-3.584-51.712-1.536-77.824 3.584-36.864-5.632-70.656-31.232-98.816-34.304-37.888-69.12-75.264-107.008-109.568-5.632-5.12-11.776-10.24-18.432-14.848-18.432-13.824-37.376-13.824-57.344-4.096-3.072 1.536-5.12 3.584-9.216 0.512-18.944-15.872-53.248-15.36-72.192 0-3.584 3.072-6.656 3.584-11.264 2.048-16.896-6.144-33.792-8.704-50.688-1.024-8.704 3.584-15.36 9.216-18.432 18.432-1.536 5.632-3.584 6.144-8.704 3.584-20.48-10.24-40.96-9.216-59.904 3.584-4.096 2.56-7.68 6.144-10.24 10.24-7.168 11.264-6.144 16.384 3.584 24.576 43.008 35.328 86.016 71.168 129.024 106.496 12.8 10.752 15.872 20.48 10.752 36.352-3.072 10.24-6.656 19.968-9.216 30.208-3.584 12.288-10.752 21.504-20.48 28.672-12.288 8.704-24.064 17.92-35.84 27.136-3.584 2.56-4.096 4.608-1.024 8.192 15.36 16.384 32.256 31.744 50.688 45.056 21.504 15.36 45.056 16.896 70.144 10.24 30.72-8.192 57.856-2.56 80.896 21.504 23.04 24.576 46.592 47.616 70.144 71.68 3.072 3.072 5.12 3.584 8.704 1.024 38.4-28.16 77.312-55.808 115.712-83.968v-3.072z"  horiz-adv-x="1024" />

    
    <glyph glyph-name="shengchankaguanli" unicode="&#59150;" d="M511.233917 894.466301C229.033218 894.466301 0.000767 665.433849 0.000767 383.23315s229.032451-511.23315 511.23315-511.23315 511.23315 229.032451 511.23315 511.23315c0 282.711932-229.032451 511.23315-511.23315 511.233151zM344.060677 558.586121l-44.988517-32.718922c-3.067399-2.044933-7.668497 0-7.668497 3.578632v22.494259h-42.432352v-154.392412h79.241138c6.646031 0 11.758362-5.112332 11.758363-11.758362 0-6.646031-5.112332-11.758362-11.758363-11.758362H237.212949c-6.646031 0-11.758362 5.112332-11.758363 11.758362V563.698452c0 6.646031 5.112332 11.758362 11.758363 11.758363h53.67948v19.938093c0 4.089865 4.601098 6.134798 7.668498 3.578632l44.988517-32.718922c3.067399-2.044933 3.067399-5.623565 0.511233-7.668497z m326.677983-395.183225c0-7.668497-6.134798-13.803295-13.803295-13.803295H363.487537c-7.668497 0-13.803295 6.134798-13.803295 13.803295v91.510734c0 7.668497 6.134798 13.803295 13.803295 13.803295h293.959061c7.668497 0 13.803295-6.134798 13.803295-13.803295v-91.510734zM354.796573 391.924114l151.325013 80.263604c2.556166 1.533699 5.623565 1.533699 8.690963 0l151.325013-80.263604c6.646031-3.578632 6.646031-12.780829 0-15.848228l-151.325013-80.263604c-2.556166-1.533699-5.623565-1.533699-8.690963 0l-151.325013 80.263604c-6.646031 3.578632-6.646031 12.780829 0 15.848228zM670.73866 512.575137c0-7.668497-6.134798-13.803295-13.803295-13.803295H363.487537c-7.668497 0-13.803295 6.134798-13.803295 13.803295V603.574638c0 7.668497 6.134798 13.803295 13.803295 13.803295h293.959061c7.668497 0 13.803295-6.134798 13.803295-13.803295V512.575137z m126.274588-304.694957c0-6.646031-5.112332-11.758362-11.758362-11.758363H731.575405v-19.938093c0-4.089865-4.601098-6.134798-7.668497-3.578632l-44.988518 32.718922c-2.556166 2.044933-2.556166 5.623565 0 7.668497l44.988518 32.718922c3.067399 2.044933 7.668497 0 7.668497-3.578632v-22.494259h42.432351v154.392412h-79.241138c-6.646031 0-11.758362 5.112332-11.758362 11.758362 0 6.646031 5.112332 11.758362 11.758362 11.758362h90.488268c6.646031 0 11.758362-5.112332 11.758362-11.758362v-177.909136zM390.582894 558.074888m-22.494259 0a22.494259 22.494259 0 1 1 44.988517 0 22.494259 22.494259 0 1 1-44.988517 0ZM630.862474 230.885671c-12.269596 0-22.494259-10.224663-22.494258-22.494258 0-12.269596 10.224663-22.494259 22.494258-22.494259 12.269596 0 22.494259 10.224663 22.494259 22.494259 0 12.780829-10.224663 22.494259-22.494259 22.494258z"  horiz-adv-x="1024" />

    
    <glyph glyph-name="zanting" unicode="&#59146;" d="M646.144 710.144h121.344v-646.656h-121.344zM258.048 710.144h121.344v-646.656H258.048z"  horiz-adv-x="1024" />

    
    <glyph glyph-name="zhuandan" unicode="&#59141;" d="M613.888 604.672L489.984 696.3199999999999v-62.976H354.304v-58.368h135.68v-61.44zM671.232 190.976H537.6v63.488l-123.904-91.136L537.6 71.67999999999995v61.952h133.632zM932.864 780.288h-237.568c-16.384 0-29.696-13.312-29.696-29.696v-733.184c0-16.384 13.312-29.696 29.696-29.696h237.568c16.384 0 29.696 13.312 29.696 29.696V750.592c0 16.384-13.312 29.696-29.696 29.696z m-30.208-733.184h-178.176V721.408h178.176v-674.304zM331.776 780.288H94.72c-16.384 0-29.696-13.312-29.696-29.696v-733.184c0-16.384 13.312-29.696 29.696-29.696h237.568c16.384 0 29.696 13.312 29.696 29.696V750.592c-0.512 16.384-13.824 29.696-30.208 29.696z"  horiz-adv-x="1024" />

    
    <glyph glyph-name="lizhi2" unicode="&#59139;" d="M248.832 428.032h526.848v-87.552H248.832zM512.512-19.456c-223.232 0-403.968 180.736-403.968 403.968S289.28 788.48 512.512 788.48 916.48 607.744 916.48 384.512s-181.248-403.968-403.968-403.968z m0-70.144c261.632 0 474.112 212.48 474.112 474.112S774.144 858.624 512.512 858.624 38.4 646.144 38.4 384.512s211.968-474.112 474.112-474.112z"  horiz-adv-x="1024" />

    
    <glyph glyph-name="shujiegoudeshangyijiantou" unicode="&#59136;" d="M361.472 383.488v-363.52h295.936v363.52H875.52L509.44 749.568 143.36 383.488z"  horiz-adv-x="1024" />

    
    <glyph glyph-name="shujiegoudexiayijiantou" unicode="&#59135;" d="M657.408 386.048v363.52H361.472v-363.52H143.36l366.08-366.08L875.52 386.048z"  horiz-adv-x="1024" />

    
    <glyph glyph-name="dingzhi-xian" unicode="&#59082;" d="M651.264 841.216c7.68-1.024 14.848-3.584 21.504-7.168h4.096l115.2-68.608c22.528-17.408 30.72-47.616 19.968-74.24-5.632-14.336-9.216-30.208-10.24-45.568 0-66.048 50.688-119.808 113.664-119.808h4.096c21.504 1.024 38.912-17.92 44.032-48.128 8.192-50.176 13.312-126.464-4.096-189.952-7.68-28.672-22.528-48.128-43.52-48.128h-4.608c-62.976 0-113.664-53.76-113.664-119.808 1.024-15.872 4.096-31.232 10.24-45.568 11.264-26.112 3.072-56.832-19.456-74.24l-115.712-67.584h-2.048c-7.168-3.072-15.36-5.12-23.04-5.12-17.92 0-34.816 7.68-46.592 20.992-23.552 28.672-55.808 48.64-92.16 56.832-35.84-7.68-68.096-27.648-92.16-56.32-11.776-13.312-28.672-20.48-46.592-20.48-8.192 0-16.384 1.536-24.064 5.12l-111.104 66.56c-22.528 17.408-30.208 48.128-19.456 74.24 5.632 14.336 9.216 30.208 10.24 45.568 0 66.048-50.688 119.808-113.664 119.808H107.52c-20.992 0-37.888 18.944-43.52 48.128-5.632 31.744-8.704 63.488-9.216 95.232 0.512 31.744 4.096 63.488 9.216 94.72 5.632 29.184 22.528 48.128 44.032 48.128h4.096c30.72-0.512 60.416 11.776 82.432 34.816 22.016 23.04 33.792 54.272 33.792 86.528-1.024 15.872-4.096 31.232-10.24 45.568-10.752 26.112-3.072 56.832 19.456 74.24l119.808 69.12c7.168 3.072 15.36 5.12 23.04 5.12 17.408 0 33.792-7.68 45.568-20.48 24.576-28.16 56.832-47.104 92.672-53.76 34.304 8.192 65.024 27.136 87.552 54.784 11.264 12.288 28.16 19.456 45.056 19.456zM380.928 774.144l-107.52-60.416c8.192-21.504 12.8-44.544 13.312-67.584-3.584-93.696-72.704-170.496-161.28-178.688-4.608-27.136-7.168-54.272-7.68-81.408 0.512-27.136 3.072-54.784 7.68-81.408 91.136-8.192 160.768-88.576 161.28-184.832 0-23.04-4.096-46.08-11.776-67.584L373.76-10.751999999999953c12.288 13.312 25.6 25.6 39.936 36.864 27.648 24.064 61.44 38.4 97.28 40.96 36.352-2.048 70.656-16.384 98.304-40.96 13.312-10.24 26.112-22.016 37.888-34.304l102.912 60.416c-7.168 21.504-10.752 44.032-10.752 67.072 1.536 96.256 72.192 175.104 162.816 182.784 9.216 24.064 18.944 110.592 2.56 159.232-93.696 5.12-166.912 86.528-167.424 184.832 0.512 23.04 5.12 46.08 13.312 67.584L650.752 773.12c-12.288-12.8-25.088-24.576-39.424-34.816-26.624-21.504-58.88-34.304-92.672-36.864-35.84 1.536-70.656 14.336-98.304 37.376-14.336 10.24-27.136 22.528-39.424 35.328z m132.608-220.16l10.24-0.512c94.208-6.144 165.888-87.04 160.256-181.76-6.144-94.208-87.04-165.888-181.76-160.256s-165.888 87.04-160.256 181.76c5.632 90.624 81.408 161.28 172.544 160.768h-1.024z m40.96-74.752C501.248 501.76 440.32 476.16 417.792 422.912c-22.016-53.248 3.072-114.176 56.32-136.704 12.8-5.12 26.624-8.192 40.448-8.192 57.344 0.512 103.936 47.104 104.448 104.448 0 42.496-25.6 80.896-64.512 96.768z"  horiz-adv-x="1024" />

    
    <glyph glyph-name="yulan2" unicode="&#59031;" d="M274.285714 835.437714a22.893714 22.893714 0 0 1-22.893714 22.820572H59.757714a22.893714 22.893714 0 0 1-22.820571-22.820572v-191.341714c0-12.580571 10.24-22.820571 22.820571-22.820571h17.261715c12.580571 0 22.893714 10.24 22.893714 22.820571V772.461714c0 12.580571 10.24 22.820571 22.820571 22.820572h128.731429c12.507429 0 22.820571 10.313143 22.820571 22.893714V835.437714z m474.038857 0c0 12.580571 10.24 22.820571 22.893715 22.820572h191.488c12.580571 0 22.893714-10.24 22.893714-22.820572v-191.341714c0-12.580571-10.24-22.820571-22.893714-22.820571h-17.188572a22.893714 22.893714 0 0 0-22.893714 22.820571V772.461714a22.893714 22.893714 0 0 1-22.820571 22.820572h-128.585143a22.893714 22.893714 0 0 0-22.893715 22.893714V835.437714zM273.554286-68.900571c0-12.580571-10.24-22.893714-22.820572-22.893715H59.757714a22.893714 22.893714 0 0 0-22.820571 22.893715V123.757714c0 12.580571 10.24 22.893714 22.820571 22.893715h17.261715c12.580571 0 22.893714-10.24 22.893714-22.893715v-129.682285c0-12.580571 10.24-22.893714 22.820571-22.893715h127.926857c12.507429 0 22.820571-10.24 22.820572-22.820571v-17.261714z m474.697143 0c0-12.580571 10.24-22.893714 22.820571-22.893715h191.707429c12.580571 0 22.893714 10.24 22.893714 22.893715V123.757714a22.893714 22.893714 0 0 1-22.893714 22.893715h-17.188572a22.893714 22.893714 0 0 1-22.893714-22.893715v-129.682285c0-12.580571-10.24-22.893714-22.820572-22.893715H770.925714a22.893714 22.893714 0 0 1-22.893714-22.820571v-17.261714zM178.029714 561.590857a22.893714 22.893714 0 0 1-22.820571-22.820571v-311.003429c0-12.580571 10.24-22.820571 22.820571-22.820571h666.331429c12.580571 0 22.820571 10.24 22.820571 22.820571V538.770286a22.893714 22.893714 0 0 1-22.820571 22.820571h-666.331429z m626.322286-271.652571c0-12.580571-10.24-22.820571-22.893714-22.820572H241.005714a22.893714 22.893714 0 0 0-22.820571 22.820572V476.598857c0 12.507429 10.24 22.820571 22.820571 22.820572h540.525715c12.507429 0 22.820571-10.24 22.820571-22.820572v-186.660571z"  horiz-adv-x="1024" />

    
    <glyph glyph-name="buxianshixiangqing1" unicode="&#59130;" d="M341.504 445.44H291.84v-124.416h174.08L341.504 445.44z m316.928-317.44H291.84v-124.416h491.52L658.432 128zM66.048 720.896v-82.432H148.48L66.048 720.896zM961.024 128h-83.456l83.456-83.456V128z m0 317.44h-400.384l124.416-124.416h276.48V445.44zM367.616 637.952h593.408V762.3679999999999H291.84v-48.64l75.776-75.776zM66.048 445.44H194.56v-124.416H66.048V445.44z m0-317.44H194.56v-124.416H66.048V128z m-2.048 645.632L122.88 832l838.656-838.656-58.88-58.88L64 773.6320000000001z"  horiz-adv-x="1024" />

    
    <glyph glyph-name="quxiaoxuanze-yidongduan" unicode="&#58886;" d="M511.8-127c-69 0-136 13.5-199 40.2-60.9 25.8-115.6 62.6-162.5 109.6S66.4 124.4 40.7 185.2C14 248.3 0.5 315.2 0.5 384.2s13.5 136 40.2 199c25.8 60.9 62.6 115.6 109.6 162.5 46.9 47 101.6 83.8 162.5 109.6C375.9 882 442.8 895.5 511.8 895.5s136-13.5 199-40.2c60.9-25.8 115.6-62.6 162.5-109.6 46.9-46.9 83.8-101.6 109.6-162.5 26.7-63.1 40.2-130 40.2-199s-13.5-136-40.2-199c-25.8-60.9-62.6-115.6-109.6-162.5-47-47-101.6-83.8-162.5-109.6-63-26.6-130-40.1-199-40.1z m0 972.6c-62.3 0-122.7-12.2-179.6-36.2-54.9-23.2-104.3-56.5-146.6-98.9-42.4-42.4-75.6-91.7-98.9-146.6-24-56.9-36.2-117.3-36.2-179.6s12.2-122.7 36.2-179.6c23.2-54.9 56.5-104.3 98.9-146.6s91.7-75.6 146.6-98.9c56.9-24 117.3-36.2 179.6-36.2s122.7 12.2 179.6 36.2c54.9 23.2 104.3 56.5 146.6 98.9 42.4 42.4 75.6 91.7 98.9 146.6 24 56.9 36.2 117.3 36.2 179.6S960.9 507 936.8 563.8c-23.2 54.9-56.5 104.3-98.9 146.6-42.4 42.4-91.7 75.6-146.6 98.9-56.8 24.1-117.2 36.3-179.5 36.3zM311.374 550.35l35.355 35.355 365.43-365.43-35.355-35.355zM311.374 220.275l365.43 365.43 35.355-35.356-365.43-365.43z"  horiz-adv-x="1024" />

    
    <glyph glyph-name="xianshixiangqing" unicode="&#59103;" d="M61.952 768h130.048v-125.44H61.952V768z m0-320h130.048V322.55999999999995H61.952V448z m0-320h130.048v-125.44H61.952V128zM289.28 768h675.328v-125.44H289.28V768z m0-320h675.328V322.55999999999995H289.28V448z m0-320h675.328v-125.44H289.28V128z"  horiz-adv-x="1024" />

    
    <glyph glyph-name="shoudongpaichan" unicode="&#59089;" d="M193.9 546.5v-121.7c0-10.2 8.3-18.5 18.5-18.5h600c10.2 0 18.5 8.3 18.5 18.5V546.5c0 10.2-8.3 18.5-18.5 18.5h-600c-10.3 0-18.5-8.3-18.5-18.5zM964.3 323H938V744.5c0 33.6-27.3 61-61 61H717.8c0.3-2.3 0.5-4.6 0.5-7v-53H877c0.5 0 1-0.4 1-1V323H364.3c-10.2 0-18.5-8.3-18.5-18.5v-121.7c0-10.2 8.3-18.5 18.5-18.5H878V24c0-0.5-0.4-1-1-1H147.7c-0.5 0-1 0.4-1 1V744.5c0 0.5 0.4 1 1 1h158.6v53c0 2.4 0.2 4.7 0.5 7H147.7c-33.6 0-61-27.3-61-61v-720.4c0-33.6 27.3-61 61-61H877c33.6 0 61 27.3 61 61V164.4h26.4c10.2 0 18.5 8.3 18.5 18.5V304.5c-0.1 10.2-8.4 18.5-18.6 18.5zM359.3 681.9c18.3 0 33 13.6 33 30.3V798.5c0 16.7-14.8 30.3-33 30.3s-33-13.6-33-30.3v-86.3c0-16.8 14.8-30.3 33-30.3zM412.4 745.5h199.9v53c0 2.4 0.2 4.7 0.5 7h-201c0.3-2.3 0.5-4.6 0.5-7v-53zM665.3 681.9c18.3 0 33 13.6 33 30.3V798.5c0 16.7-14.8 30.3-33 30.3s-33-13.6-33-30.3v-86.3c0-16.8 14.8-30.3 33-30.3z"  horiz-adv-x="1024" />

    
    <glyph glyph-name="jianqie1" unicode="&#59084;" d="M301.6 14h-80v40h80v-40z m-120 0h-80v40h80v-40zM92 44.4H52v80h40v-80z m0 120H52v80h40v-80z m0 120H52v80h40v-80z m0 120H52v80h40v-80z m0 120H52v80h40v-80z m632 108.9l-51.4 61.3 30.7 25.7 51.4-61.3-30.7-25.7zM92 644.4H52v80h40v-80z m554.9 80.8l-51.4 61.3 30.7 25.7 51.4-61.3-30.7-25.7zM92 764.4H52V817.3c0 11 9 20 20 20h27.2v-40H92v-32.9z m487.2 32.9h-80v40h80v-40z m-120 0h-80v40h80v-40z m-120 0h-80v40h80v-40z m-120 0h-80v40h80v-40zM932.7-89.5H279c-22.1 0-40 17.9-40 40V697.2c0 22.1 17.9 40 40 40h433.3c12.2 0 23.8-5.6 31.3-15.1L964 444.2c5.6-7.1 8.7-15.8 8.7-24.9v-468.9c0-22-17.9-39.9-40-39.9z m-613.7 80h573.7v415L693 657.2H319v-666.7zM932.7 379.4H712.3c-22.1 0-40 17.9-40 40V697.2c0 17 10.8 32.2 26.8 37.8 16.1 5.6 33.9 0.4 44.5-12.9L964 444.2c9.5-12 11.4-28.4 4.7-42.3-6.7-13.8-20.6-22.5-36-22.5z m-180.4 80h97.6l-97.6 123.1v-123.1z"  horiz-adv-x="1024" />

    
    <glyph glyph-name="quxiaotouka" unicode="&#59081;" d="M875.52 221.184H157.184c-11.264 0-20.48-9.216-20.48-20.48v-173.568c0-11.264 9.216-20.48 20.48-20.48H875.52c11.264 0 20.48 9.216 20.48 20.48v173.568c0 11.776-9.216 20.48-20.48 20.48zM875.52 762.368H157.184c-11.264 0-20.48-9.216-20.48-20.48V568.32c0-11.264 9.216-20.48 20.48-20.48H875.52c11.264 0 20.48 9.216 20.48 20.48V741.888c0 11.264-9.216 20.48-20.48 20.48zM41.472 357.376h99.328v40.96H41.472c-22.528 0-40.96-18.432-40.96-40.96v-222.208c0-22.528 18.432-40.96 40.96-40.96h113.664v40.96H41.472v222.208zM980.48 674.816h-105.472v-40.96h105.472v-235.52h-117.248v-40.96h117.248c22.528 0 40.96 18.432 40.96 40.96v235.52c-0.512 22.528-18.432 40.96-40.96 40.96zM875.52 493.568H157.184c-11.264 0-20.48-9.216-20.48-20.48v-173.568c0-11.264 9.216-20.48 20.48-20.48H875.52c11.264 0 20.48 9.216 20.48 20.48V473.088c0 11.264-9.216 20.48-20.48 20.48z m-20.48-173.568H177.664v133.12H855.04v-133.12z"  horiz-adv-x="1024" />

    
    <glyph glyph-name="_shoudongpaichan" unicode="&#59080;" d="M919.04 651.264h-77.312v-37.888h77.312v-217.088h-57.344C855.04 443.904 814.08 481.28 764.416 481.28H179.712c-9.216 0-16.384-7.168-16.384-16.384v-69.12H104.448c-20.48 0-37.888-16.896-37.888-37.888v-204.8c0-20.48 16.896-37.888 37.888-37.888H179.2V153.60000000000002H104.448v204.8h58.88v-58.88c0-9.216 7.168-16.384 16.384-16.384h584.192c46.08 0 84.992 31.744 95.744 74.752h59.392c20.48 0 37.888 16.896 37.888 37.888V613.8879999999999c0 20.48-16.896 37.376-37.888 37.376zM767.488 337.91999999999996c-24.576 0-44.544 19.968-44.544 44.544 0 24.576 19.968 44.544 44.544 44.544 24.576 0 44.544-19.968 44.544-44.544-0.512-25.088-19.968-44.544-44.544-44.544zM824.32 694.2719999999999v-122.368H199.68V694.2719999999999h624.64m18.944 37.888H180.736c-10.24 0-18.944-8.704-18.944-18.944v-159.744c0-10.24 8.704-18.944 18.944-18.944h662.016c10.24 0 18.944 8.704 18.944 18.944V713.216c0 10.24-8.192 18.944-18.432 18.944zM824.32 195.58399999999995v-122.368H199.68v122.368h624.64m18.944 37.888H180.736c-10.24 0-18.944-8.704-18.944-18.944v-159.744c0-10.24 8.704-18.944 18.944-18.944h662.016c10.24 0 18.944 8.704 18.944 18.944v159.744c0 10.24-8.192 18.944-18.432 18.944z"  horiz-adv-x="1024" />

    
    <glyph glyph-name="tuozhuai" unicode="&#59074;" d="M1022.015564 384.996109L824.785992 582.225681v-135.670039H572.571206V698.770428H708.241245L511.011673 896 313.782101 698.770428h135.670039v-252.214786H197.237354V582.225681L0.007782 384.996109l197.229572-197.229572V323.436576h252.214786V71.22179H313.782101l197.229572-197.229572 197.229572 197.229572H572.571206V323.436576H824.785992V187.766537z"  horiz-adv-x="1026" />

    
    <glyph glyph-name="xinzeng" unicode="&#59072;" d="M61.44 425.984h898.56v-81.92H61.44zM470.016 834.56h81.92v-898.56h-81.92z"  horiz-adv-x="1024" />

    
    <glyph glyph-name="shanchu-xinzengduiying" unicode="&#59073;" d="M61.44 425.984h898.56v-81.92H61.44z"  horiz-adv-x="1024" />

    
    <glyph glyph-name="qiyong" unicode="&#59070;" d="M510.464 854.016c-258.56 0-468.48-209.92-468.48-468.48s209.92-468.48 468.48-468.48 468.48 209.92 468.48 468.48S768.512 854.016 510.464 854.016z m0-855.04c-212.992 0-386.56 173.568-386.56 386.56S296.96 772.096 510.464 772.096s386.56-173.568 386.56-386.56-173.568-386.56-386.56-386.56zM777.728 586.752c-15.872 15.872-41.984 15.872-57.856 0l-258.048-258.048-148.48 148.992c-15.872 15.872-41.984 15.872-57.856 0-15.872-15.872-15.872-41.984 0-57.856l177.664-178.176c7.68-7.68 17.92-11.776 29.184-12.288 10.752 0 21.504 4.096 29.184 11.776l287.232 287.232c14.848 16.384 14.848 42.496-1.024 58.368z"  horiz-adv-x="1024" />

    
    <glyph glyph-name="jinyong" unicode="&#59071;" d="M510.464 854.016c-258.56 0-468.48-209.92-468.48-468.48s209.92-468.48 468.48-468.48 468.48 209.92 468.48 468.48S768.512 854.016 510.464 854.016z m0-81.92c91.648 0 176.128-32.256 242.688-86.016L209.92 142.848c-53.76 66.56-86.016 151.04-86.016 242.688C123.904 599.04 296.96 772.096 510.464 772.096z m0-773.12c-91.648 0-176.128 32.256-242.688 86.016L811.008 628.224c53.76-66.56 86.016-151.04 86.016-242.688 0-212.992-173.568-386.56-386.56-386.56z"  horiz-adv-x="1024" />

    
    <glyph glyph-name="nengyuanguanli-jiaobiao" unicode="&#59054;" d="M385.536 591.36h638.464v-411.136H0l203.264 312.32c39.936 61.44 108.544 98.816 182.272 98.816z"  horiz-adv-x="1025" />

    
    <glyph glyph-name="shanchu1" unicode="&#59053;" d="M648.5 752.4H391.3c-13.9 0-26.5-8.5-31.7-21.4L329 654.9h378.6l-27 75c-4.2 11.6-14.2 19.9-26 22l-6.1 0.5z m-24.6-254.6c16.7 0 30.7-12.1 33.6-28l0.5-6.1v-320.6c0-18.8-15.3-34.1-34.1-34.1-16.7 0-30.7 12.1-33.6 28l-0.5 6.1V463.7c0 18.9 15.3 34.1 34.1 34.1z m-206.6 0c16.7 0 30.7-12.1 33.6-28l0.5-6.1v-320.6c0-18.8-15.3-34.1-34.1-34.1-16.7 0-30.7 12.1-33.6 28l-0.5 6.1V463.7c0 18.9 15.3 34.1 34.1 34.1z m387.4 88.8H236.1v-523.2c0-22.8 16.8-41.7 38.8-45l6.7-0.5h477.6c22.8 0 41.7 16.8 45 38.8l0.5 6.7V586.6z m-156.2 234c43.1 0 81.7-27.1 96.3-67.6l35.4-98.1H939c18.8 0 34.1-15.3 34.1-34.1 0-16.7-12.1-30.7-28-33.6l-6.1-0.5h-66v-523.2c0-59.5-45.7-108.3-103.9-113.3l-9.8-0.4H281.6c-59.5 0-108.3 45.7-113.3 103.9l-0.4 9.8V586.6H82.6c-16.7 0-30.7 12.1-33.6 28l-0.5 6.1c0 16.7 12.1 30.7 28 33.6l6.1 0.6h172.9l40.9 101.6c14.4 35.8 47.5 60.2 85.4 63.7l9.6 0.4h257.1z"  horiz-adv-x="1024" />

    
    <glyph glyph-name="shanchu" unicode="&#59051;" d="M896-46.08c-11.776 0-23.552 4.608-32.768 13.312l-768 768c-17.92 17.92-17.92 47.104 0 65.024s47.104 17.92 65.024 0l768-768c17.92-17.92 17.92-47.104 0-65.024-8.704-8.704-20.48-13.312-32.256-13.312zM128-46.08c-11.776 0-23.552 4.608-32.768 13.312-17.92 17.92-17.92 47.104 0 65.024l768 768c17.92 17.92 47.104 17.92 65.024 0s17.92-47.104 0-65.024l-768-768c-8.704-8.704-20.48-13.312-32.256-13.312z"  horiz-adv-x="1024" />

    
    <glyph glyph-name="bianji1" unicode="&#59052;" d="M951.296-37.376H72.704c-20.992 0-38.4 17.408-38.4 38.4s17.408 38.4 38.4 38.4h878.592c20.992 0 38.4-17.408 38.4-38.4s-17.408-38.4-38.4-38.4zM179.2 97.28c-10.24 0-19.968 4.096-27.136 11.264-8.704 8.704-12.8 20.992-10.752 32.768l25.088 164.864c1.024 8.192 5.12 15.36 10.752 21.504l527.36 526.848c14.848 14.848 39.424 14.848 54.272 0l139.264-139.264c14.848-14.848 14.848-39.424 0-54.272l-526.848-527.36c-5.632-5.632-13.312-9.728-21.504-10.752l-164.864-25.088c-1.536-0.512-3.584-0.512-5.632-0.512z m164.864 63.488z m-103.936 121.344l-15.36-100.864 100.864 15.36 491.008 491.52L731.648 773.12l-491.52-491.008zM751.104 529.408c-9.728 0-19.456 3.584-27.136 11.264L583.68 679.936c-14.848 14.848-14.848 39.424 0 54.272 14.848 14.848 39.424 14.848 54.272 0L778.24 594.944c14.848-14.848 14.848-39.424 0-54.272-7.68-7.68-17.408-11.264-27.136-11.264z"  horiz-adv-x="1024" />

    
    <glyph glyph-name="shebeigongduan" unicode="&#59050;" d="M513.024 896C231.424 896 2.56 667.136 2.56 385.024c0-282.112 228.864-510.976 510.976-510.976 282.112 0 510.464 229.376 510.464 510.976S795.136 896 513.024 896z m296.96-732.672l-112.64-112.128c-5.12-5.12-12.288-8.192-19.968-8.192-16.384 0-29.184 12.8-29.696 28.672v69.632h-109.568c-9.728 0-18.944 3.584-26.112 10.752l-145.92 145.92c-14.336 14.336-14.336 37.376 0 51.712s37.376 14.336 51.712 0l135.168-135.68h94.72v81.92c0 8.192 3.072 15.872 8.704 21.504 11.264 11.264 29.696 10.752 40.96-1.024l112.64-112.128c11.264-11.264 11.264-29.696 0-40.96z m0 401.92l-112.64-112.128c-5.12-5.12-12.288-8.192-19.968-8.192-16.384 0-29.184 12.8-29.696 28.672V543.232H552.96l-128-128c-5.12-11.776-16.384-17.92-33.28-17.92H173.056c-24.576 0-36.352 12.288-36.352 36.352 0 24.576 12.288 36.352 36.352 36.352h203.776l135.68 135.68c6.656 6.656 16.384 10.752 26.112 10.752h109.568v81.92c0 8.192 3.072 15.872 8.704 21.504 11.264 11.264 29.696 10.752 40.96-1.024l112.64-112.128c10.752-11.776 10.752-30.208-0.512-41.472z"  horiz-adv-x="1024" />

    
    <glyph glyph-name="nengyuanguanli-dian" unicode="&#58982;" d="M569.344 894.976L181.248 307.2h359.936l-156.16-434.176L842.752 442.88H437.76z"  horiz-adv-x="1024" />

    
    <glyph glyph-name="nengyuanguanli-diyazhengqi" unicode="&#58983;" d="M354.304 116.224c-12.288 0-23.552 6.656-29.696 17.92-8.704 16.384-2.048 36.352 14.336 45.056 45.056 23.552 71.68 51.2 80.384 82.944 9.216 35.328-3.072 80.384-37.376 133.12-107.008 165.376-42.496 276.992 30.72 341.504 13.824 12.288 34.816 10.752 47.104-3.072 12.288-13.824 10.752-34.816-3.072-47.104-79.872-70.656-85.504-151.552-18.944-254.976 45.056-69.12 60.416-132.096 45.568-186.368-13.312-50.688-51.712-92.672-114.176-124.928-4.096-2.56-9.728-4.096-14.848-4.096z m214.016 0c-12.288 0-23.552 6.656-29.696 17.92-8.704 16.384-2.048 36.352 14.336 45.056 45.056 23.552 71.68 51.2 80.384 82.944 9.216 35.328-3.072 80.384-37.376 133.12-107.008 165.376-42.496 276.992 30.72 341.504 13.824 12.288 34.816 10.752 47.104-3.072 12.288-13.824 10.752-34.816-3.072-47.104-79.872-70.656-85.504-151.552-18.944-254.976 45.056-69.12 60.416-132.096 45.568-186.368-13.312-50.688-51.712-92.672-114.176-124.928-4.096-2.56-9.728-4.096-14.848-4.096zM862.208 22.528H161.792c-18.432 0-33.28 14.848-33.28 33.28s14.848 33.28 33.28 33.28h699.904c18.432 0 33.28-14.848 33.28-33.28 0.512-17.92-14.336-33.28-32.768-33.28z"  horiz-adv-x="1024" />

    
    <glyph glyph-name="nengyuanguanli-shui" unicode="&#58984;" d="M123.904 594.944V422.4h209.92V594.944h67.584v-413.696h-67.584V364.544h-209.92v-183.296H56.32V594.944h67.584zM529.92 320c9.216-8.192 13.824-18.944 13.824-32.256 0-12.8-5.12-24.576-14.336-34.816-5.632-6.144-15.872-14.336-30.72-24.064-14.848-10.24-24.064-18.432-27.648-26.112h73.216v-21.504H440.32c0 14.848 4.608 28.16 14.848 39.424 5.12 6.144 16.896 15.36 33.792 27.136 9.216 6.656 15.872 12.288 20.48 16.896 6.144 7.168 9.728 14.848 9.728 23.552 0 8.192-2.048 14.336-6.144 17.92-4.608 4.096-10.752 5.632-18.944 5.632-9.216 0-15.872-3.072-20.48-9.216-4.608-5.632-7.168-14.848-7.68-26.624h-24.064c0.512 16.896 5.12 29.696 14.336 39.936 9.728 10.752 22.528 15.872 38.912 15.872 13.312 0 25.088-3.584 34.816-11.776z m386.56 213.504c33.792-37.888 51.2-88.576 51.2-150.528s-16.896-112.128-51.2-150.016c-35.328-39.424-84.48-59.392-145.92-59.392-61.952 0-111.104 20.48-145.92 59.904-33.792 38.4-50.688 88.576-50.688 149.504 0 61.44 16.384 111.616 50.688 150.016 34.816 40.448 83.456 60.416 145.92 60.416 61.952 0 110.592-19.968 145.92-59.904z m-243.2-40.96C651.264 465.408 640 429.056 640 382.464c0-46.08 11.264-81.92 33.28-109.056 22.528-27.648 55.296-41.984 97.792-41.984s74.24 13.312 96.768 39.936c22.016 26.624 33.28 63.488 33.28 111.104s-11.264 84.992-33.28 112.128c-22.528 27.136-55.296 39.936-96.768 39.936-41.984 0.512-74.752-13.824-97.792-41.984z"  horiz-adv-x="1024" />

    
    <glyph glyph-name="nengyuanguanli-gaoyazhengqi" unicode="&#58985;" d="M237.568 116.224c-12.288 0-23.552 6.656-29.696 17.92-8.704 16.384-2.048 36.352 14.336 45.056 45.056 23.552 71.68 51.2 80.384 82.944 9.216 35.328-3.072 80.384-37.376 133.12-107.008 165.376-42.496 276.992 30.72 341.504 13.824 12.288 34.816 10.752 47.104-3.072 12.288-13.824 10.752-34.816-3.072-47.104-79.872-70.656-85.504-151.552-18.944-254.976 45.056-69.12 60.416-132.096 45.568-186.368-13.312-50.688-51.712-92.672-114.176-124.928-4.096-2.56-9.728-4.096-14.848-4.096z m214.016 0c-12.288 0-23.552 6.656-29.696 17.92-8.704 16.384-2.048 36.352 14.336 45.056 45.056 23.552 71.68 51.2 80.384 82.944 9.216 35.328-3.072 80.384-37.376 133.12-107.008 165.376-42.496 276.992 30.72 341.504 13.824 12.288 34.816 10.752 47.104-3.072 12.288-13.824 10.752-34.816-3.072-47.104-79.872-70.656-85.504-151.552-18.944-254.976 45.056-69.12 60.416-132.096 45.568-186.368-13.312-50.688-51.712-92.672-114.176-124.928-4.096-2.56-9.728-4.096-14.848-4.096z m231.424 0c-12.288 0-23.552 6.656-29.696 17.92-8.704 16.384-2.048 36.352 14.336 45.056 45.056 23.552 71.68 51.2 80.384 82.944 9.216 35.328-3.072 80.384-37.376 133.12-107.008 165.376-42.496 276.992 30.72 341.504 13.824 12.288 34.816 10.752 47.104-3.072 12.288-13.824 10.752-34.816-3.072-47.104-79.872-70.656-85.504-151.552-18.944-254.976 45.056-69.12 60.416-132.096 45.568-186.368-13.312-50.688-51.712-92.672-114.176-124.928-4.096-2.56-9.728-4.096-14.848-4.096zM862.208 22.528H161.792c-18.432 0-33.28 14.848-33.28 33.28s14.848 33.28 33.28 33.28h699.904c18.432 0 33.28-14.848 33.28-33.28 0.512-17.92-14.336-33.28-32.768-33.28z"  horiz-adv-x="1024" />

    
    <glyph glyph-name="nengyuanguanli-tianranqi" unicode="&#58989;" d="M378.88 561.152c30.208-24.576 48.128-57.856 54.784-99.84h-66.048c-7.168 27.136-19.968 47.104-38.912 59.904-18.432 12.8-42.496 18.432-71.168 18.432-43.52 0-76.288-14.336-98.304-44.544-20.48-26.624-30.208-64-30.208-111.616 0-48.64 9.728-86.528 29.696-112.64 21.504-27.648 55.296-42.496 100.352-42.496 29.696 0 53.76 7.68 72.704 21.504 19.968 15.872 33.792 39.424 41.984 70.656h66.048c-9.216-48.64-30.72-86.528-65.024-113.664-31.744-25.6-70.144-38.4-115.2-38.4-69.12 0-120.832 22.016-154.624 65.024-29.696 37.376-44.032 87.04-44.032 150.016 0 61.44 14.848 112.128 46.08 150.528 34.816 44.032 85.504 65.536 151.552 65.536 48.64 0 89.088-12.8 120.32-38.4z m163.328 30.208v-173.056H752.64V591.36h68.096v-414.72H752.64V359.936H542.208V176.64h-68.096V591.36h68.096z m398.848-264.192v-98.304h22.528v-21.504h-22.528v-30.208h-23.552V207.36H844.8v25.6l73.728 94.72h22.528z m-71.168-98.816h47.616v62.464h-0.512l-47.104-62.464z"  horiz-adv-x="1024" />

    
    <glyph glyph-name="nengyuanguanli-nengyuankaohe1" unicode="&#59041;" d="M444.416 439.296h135.68v-290.304H444.416zM633.344 605.184h135.68v-456.192h-135.68zM254.464 331.264h135.68v-182.272H254.464zM13.824 104.448v-65.024c0-36.864 30.208-67.072 67.072-67.072h863.232c36.864 0 67.072 30.208 67.072 67.072v65.024H13.824z m750.592-47.616c0-9.728-8.192-16.896-16.896-16.896H276.48c-9.728 0-16.896 8.192-16.896 16.896 0 9.728 8.192 16.896 16.896 16.896h470.528c9.728 0 17.408-7.168 17.408-16.896zM218.112 675.328h60.928V614.4H218.112zM137.728 670.72H86.016V746.496c-8.192-13.824-13.312-29.696-13.312-46.592V148.48h65.024V670.72zM187.392 726.528H860.16c14.336 0 26.112-11.776 26.112-26.112v-551.424h65.024V699.904c0 50.688-40.96 91.648-91.648 91.648H163.84c-20.48 0-39.424-6.656-53.76-18.432h78.336v-47.104h-1.024zM290.304 605.184h104.96v-104.96H290.304z"  horiz-adv-x="1024" />

    
    <glyph glyph-name="nengyuanguanli-nengyuanjiance1" unicode="&#59042;" d="M230.4-25.088l39.424 68.608C163.84 119.296 93.696 243.712 93.696 384s69.12 264.704 176.128 340.48L230.4 793.088C100.864 702.976 15.872 553.472 15.872 384s84.992-318.976 214.528-409.088zM338.432 763.392c52.736 24.064 111.616 37.888 173.568 37.888 217.088 0 395.776-166.4 415.744-378.368h79.36C987.136 678.4 773.12 880.128 512.512 880.128c-76.288 0-148.48-17.408-213.504-48.128l39.424-68.608zM927.232 344.576c-19.968-211.968-198.656-378.368-415.744-378.368-61.952 0-120.832 13.312-173.568 37.888l-39.424-68.608C363.008-95.744 435.2-112.64 512-112.64c260.608 0 474.624 201.728 494.592 457.216h-79.36zM512 264.704c-65.536 0-119.296 53.248-119.296 119.296S446.464 503.296 512 503.296s119.296-53.248 119.296-119.296-53.76-119.296-119.296-119.296z m0 159.744c-22.528 0-40.448-18.432-40.448-40.448s18.432-40.448 40.448-40.448 40.448 18.432 40.448 40.448-17.92 40.448-40.448 40.448zM512 424.448c-21.504 0-39.424 17.408-39.424 39.424V703.488c0 21.504 17.408 39.424 39.424 39.424 21.504 0 39.424-17.408 39.424-39.424v-240.128c0-21.504-17.408-38.912-39.424-38.912zM512 54.784c-181.248 0-329.216 147.968-329.216 329.216 0 56.32 14.848 111.616 41.472 160.256 10.752 18.944 34.816 25.6 53.248 15.36 18.944-10.752 25.6-34.816 15.36-53.248-20.48-36.864-31.744-79.36-31.744-121.856 0-137.728 112.128-250.368 250.368-250.368 137.728 0 250.368 112.128 250.368 250.368 0 43.008-11.264 84.992-31.744 121.856-10.752 18.944-4.096 43.008 15.36 53.248 18.944 10.752 43.008 4.096 53.248-15.36 27.648-48.64 41.472-104.448 41.472-160.256 1.024-181.248-146.944-329.216-328.192-329.216z"  horiz-adv-x="1024" />

    
    <glyph glyph-name="nengyuanguanli-nengyuanfenxi1" unicode="&#59043;" d="M939.008 273.92c-19.456 5.632-40.448-5.12-46.08-24.576-25.088-82.944-77.824-157.696-146.944-210.432-71.68-54.272-157.696-82.944-248.32-82.944-227.84 0-413.184 184.832-413.184 413.184 0 188.928 128 353.792 311.296 399.872 19.968 5.12 31.744 25.088 26.624 45.056-5.12 19.968-25.088 31.744-45.056 26.624C161.28 786.432 10.24 592.896 10.24 369.152 10.24 100.352 228.352-117.76 497.152-117.76c107.008 0 207.872 33.792 292.352 97.28 82.432 61.952 143.872 150.016 173.568 247.296 6.656 20.48-4.608 41.472-24.064 47.104zM1017.856 370.176c0 287.232-232.96 519.68-519.68 519.68 286.72-0.512 519.68-232.96 519.68-519.68zM571.392 370.176v-1.024c0-40.96-33.28-74.24-74.24-74.24s-74.24 33.28-74.24 74.24 33.28 74.24 74.24 74.24h1.024V889.856h-1.024V517.12c-81.408 0-147.456-66.048-147.456-147.456s66.048-147.456 147.456-147.456 147.456 66.048 147.456 147.456h373.248v1.024h-446.464zM498.176 889.856v-370.688h-1.024C414.72 519.168 348.16 452.608 348.16 370.176s67.072-148.992 148.992-148.992 148.992 66.56 148.992 148.992h371.712c0 286.72-232.96 519.168-519.68 519.68z m-1.024-593.92c-40.96 0-74.24 33.28-74.24 74.24s33.28 74.24 74.24 74.24h1.024v-1.024c39.936-0.512 72.192-32.768 73.216-73.216 0-40.96-33.28-74.24-74.24-74.24zM628.736 440.32c-13.312 25.6-34.304 46.592-59.904 60.928V814.592c192-30.208 344.064-182.272 374.272-374.272h-314.368zM654.336 486.912c-11.264 15.36-24.576 28.16-38.912 39.936V756.224c128.512-38.912 229.888-140.8 269.312-269.312h-230.4z"  horiz-adv-x="1024" />

    
    <glyph glyph-name="nengyuanguanli-nengyuanzonglan3" unicode="&#59044;" d="M10.752 104.96v-65.024c0-37.376 30.208-67.584 67.584-67.584h868.352c37.376 0 67.584 30.208 67.584 67.584v65.024H10.752z m755.2-48.64c0-9.728-8.192-16.896-16.896-16.896H275.456c-9.728 0-16.896 8.192-16.896 16.896 0 9.728 8.192 16.896 16.896 16.896h473.088c9.728 1.024 17.408-7.168 17.408-16.896zM916.992 777.216h1.536c-15.36 11.264-34.304 18.432-54.272 18.432H161.792c-20.48 0-39.424-6.656-54.272-18.432h1.536c-22.528-16.384-37.376-43.52-37.376-73.728v-554.496h65.024V703.488c0 14.336 11.776 26.112 26.112 26.112h699.904c14.336 0 26.112-11.776 26.112-26.112v-554.496h65.024V703.488c0.512 30.208-14.336 57.344-36.864 73.728zM698.368 531.968l-178.176 101.376c-4.608 3.072-9.728 3.072-14.336 0l-179.2-101.376c-4.608-3.072-7.68-7.68-7.68-12.8v-202.752c0-5.12 3.072-9.728 7.68-12.8l178.176-101.376c4.608-3.072 9.728-3.072 14.336 0l178.176 101.376c4.608 3.072 7.68 7.68 7.68 12.8V519.68c0.512 5.12-2.048 9.728-6.656 12.288z m-72.704-69.12l-99.328-58.88v-116.224c0-4.096-1.024-7.68-4.096-10.24s-6.144-4.608-10.24-4.608-7.68 1.536-10.24 4.608-4.096 6.144-4.096 10.24V403.968L398.336 462.848c-6.656 4.096-9.216 13.312-5.12 19.968 1.536 3.584 5.12 5.632 8.704 6.656 3.584 1.024 7.68 0.512 10.752-1.024L512 429.568l99.328 58.88c3.584 1.536 7.68 2.048 10.752 1.536 3.584-1.024 6.656-3.584 8.704-6.656 4.608-7.168 2.048-16.384-5.12-20.48z"  horiz-adv-x="1024" />

    
    <glyph glyph-name="nengyuanguanli-nengyuanzonglan1" unicode="&#59039;" d="M525.312 319.488c-4.096-2.048-8.704-3.584-13.312-3.584-4.608 0-9.216 1.024-13.312 3.584L307.2 423.936c-8.192-4.608-17.408-7.68-27.648-7.68C249.344 416.256 225.28 440.32 225.28 470.528s24.064 54.272 54.272 54.272c29.184 0 53.248-23.552 54.272-52.224l178.688-97.28 441.856 241.664c0.512 0.512 1.536 0.512 2.048 1.024-1.536 1.536-3.584 3.072-5.632 4.096L529.92 860.16c-10.752 6.144-23.552 6.144-34.304 0L74.752 621.568c-10.752-6.144-17.408-17.408-17.408-29.696V389.12c4.608 0 9.216-1.024 13.312-3.072l441.856-241.664 177.152 93.184c1.536 28.672 25.088 51.712 54.272 51.712 30.208 0 54.272-24.064 54.272-54.272s-24.064-54.272-54.272-54.272c-10.24 0-19.968 3.072-28.672 8.192l-190.464-99.84c-4.096-2.048-8.192-3.072-12.8-3.072-4.608 0-9.216 1.024-13.312 3.584l-441.344 241.664v-154.624c0-12.288 6.656-23.552 17.408-29.696L495.104-92.16c10.752-6.144 23.552-6.144 34.304 0l420.352 238.08c10.752 6.144 17.408 17.408 17.408 29.696V561.152l-441.856-241.664zM247.296 635.392l252.416 141.824c7.68 4.608 17.408 4.608 25.088 0l252.416-141.824c17.408-9.728 17.408-34.816 0-44.544l-252.416-141.824c-7.68-4.608-17.408-4.608-25.088 0L247.296 590.848c-17.408 9.728-17.408 34.816 0 44.544zM503.808 508.928L342.016 600.576c-11.264 6.144-11.264 22.528 0 28.672l162.304 91.136c5.12 3.072 11.264 3.072 16.384 0l162.304-91.136c11.264-6.144 11.264-22.528 0-28.672l-162.304-91.136c-5.632-3.072-11.776-3.072-16.896-0.512z"  horiz-adv-x="1024" />

    
    <glyph glyph-name="zhankai" unicode="&#59013;" d="M84 693l433-353.9 423.3 354.2c18 15.1 20.4 41.9 5.3 59.9-15.1 18-41.9 20.4-59.9 5.3l-369.3-309-378.6 309.4c-18.2 14.9-45 12.2-59.8-6-14.8-18.2-12.2-45 6-59.9zM885.8 419L516.4 109.9 137.8 419.3c-18.2 14.9-45 12.2-59.8-6-14.9-18.2-12.2-45 6-59.8l433-353.9 423.3 354.2c18 15.1 20.4 41.9 5.3 59.9-15 18-41.8 20.3-59.8 5.3z"  horiz-adv-x="1024" />

    
    <glyph glyph-name="zhedie" unicode="&#59014;" d="M940 75L507 428.9 83.7 74.7c-18-15.1-20.4-41.9-5.3-59.9 15.1-18 41.9-20.4 59.9-5.3l369.4 309.1 378.6-309.4c18.2-14.9 45-12.2 59.8 6 14.7 18.1 12.1 44.9-6.1 59.8zM138.2 349l369.4 309.1 378.6-309.4c18.2-14.9 45-12.2 59.8 6 14.9 18.2 12.2 45-6 59.8L507 768.4 83.7 414.3c-18-15.1-20.4-41.9-5.3-59.9 15-18.1 41.8-20.4 59.8-5.4z"  horiz-adv-x="1024" />

    
    <glyph glyph-name="sousuo" unicode="&#59012;" d="M1024-33.792l-261.632 261.632c119.296 164.352 104.96 396.8-43.52 544.768C555.008 936.96 287.744 936.96 123.392 772.608c-164.352-163.84-164.352-431.104 0-595.456 79.36-79.36 185.344-123.392 297.984-123.392 90.112 0 175.616 28.16 247.296 79.872l261.632-261.632 93.696 94.208zM217.088 271.36c-112.128 112.128-112.128 295.424 0 407.552 112.64 112.64 295.424 112.128 407.552 0 112.128-112.128 112.128-295.424 0-407.552-108.544-109.056-298.496-109.056-407.552 0z"  horiz-adv-x="1024" />

    
    <glyph glyph-name="touxiang" unicode="&#59010;" d="M512 384m-512 0a512 512 0 1 1 1024 0 512 512 0 1 1-1024 0ZM800.768 462.848c0 38.4-22.016 70.656-52.736 82.944 1.536 8.704 2.048 17.92 2.048 27.136 0 77.824-47.616 145.408-117.248 179.712v-100.864c0-12.8-10.752-23.552-23.552-23.552-12.8 0-23.552 10.752-23.552 23.552V793.088c-18.432 4.608-37.376 7.168-57.344 7.168-19.456 0-38.912-2.56-56.832-7.168v-141.312c0-12.8-10.752-23.552-23.552-23.552S424.96 638.976 424.96 651.776V753.152C354.816 718.848 307.2 651.264 307.2 573.44c0-9.216 1.024-18.432 2.048-27.136-30.208-12.8-52.224-44.544-52.224-82.432 0-53.248 42.496-95.744 91.136-88.064 40.96-74.24 110.08-121.344 180.736-121.344s139.776 47.104 180.224 121.344c48.64-8.192 91.648 33.792 91.648 87.04M392.704 558.592c42.496 8.704 88.064 14.336 136.192 14.336 48.64 0 94.208-5.632 136.704-14.336 3.584-7.68 7.168-14.848 10.752-21.504-35.84 9.216-88.576 16.384-147.456 16.384s-111.616-7.168-147.456-16.384c4.096 7.168 8.192 14.336 11.264 21.504m136.192-260.608c-53.248 0-111.104 31.232-158.72 133.12-9.728-4.608-23.552-12.8-33.28-12.8-47.104 0-48.128 88.064-1.024 90.112l5.632-0.512c15.36-7.168 52.224-12.8 100.864-15.872v-2.56c0-19.456 9.728-34.816 22.528-34.816 12.288 0 22.528 15.872 22.528 34.816v0.512c13.312-0.512 27.136-0.512 41.472-0.512s28.16 0 41.472 0.512v-0.512c0-19.456 9.728-34.816 22.528-34.816 12.288 0 22.528 15.872 22.528 34.816v2.56c48.64 3.072 85.504 8.704 100.864 15.872 2.56 0 5.12 0.512 5.632 0.512 47.104-2.048 46.08-90.112-1.024-90.112-9.728 0-23.552 8.192-33.28 12.8-47.104-102.4-105.472-133.12-158.72-133.12m171.52-28.672v-242.176h159.232v1.024c0 93.184-82.944 183.296-159.232 241.152m-171.52-155.648c-45.568 0-90.112 92.672-129.024 145.92V92.16h258.56v167.424c-38.912-53.76-83.456-145.92-129.536-145.92m-330.24-85.504v-1.024h159.232v242.176c-76.288-57.856-159.232-147.456-159.232-241.152m330.24 338.944c22.528 0 40.448 17.408 43.008 34.304H485.888c2.56-16.896 20.992-34.304 43.008-34.304"  horiz-adv-x="1024" />

    
    <glyph glyph-name="shouye" unicode="&#59009;" d="M68.608 390.144l7.168 6.656v-478.208c0-25.6 20.992-46.592 46.592-46.592h228.352c25.6 0 46.592 20.992 46.592 46.592v254.464c0 27.136 22.016 49.664 49.664 49.664h129.536c27.136 0 49.664-22.016 49.664-49.664v-254.464c0-25.6 20.992-46.592 46.592-46.592h233.984c25.6 0 46.592 20.992 46.592 46.592V391.168c18.432-16.384 44.032-15.36 59.392 1.536 7.168 8.192 11.264 18.944 10.752 29.696-0.512 10.752-5.632 20.992-13.312 28.672l-440.32 423.424c-31.232 28.16-78.848 28.16-110.08 0L13.824 451.072c-16.384-15.36-17.92-40.96-2.56-57.856 14.336-16.384 40.448-17.92 57.344-3.072z"  horiz-adv-x="1024" />

    
    <glyph glyph-name="yingyongzhongxin" unicode="&#59003;" d="M949.76 653.312L529.408 891.904c-10.752 6.144-23.552 6.144-34.304 0L74.24 653.312c-10.752-6.144-17.408-17.408-17.408-29.696v-477.696c0-12.288 6.656-23.552 17.408-29.696l420.352-238.08c10.752-6.144 23.552-6.144 34.304 0l420.352 238.08c10.752 6.144 17.408 17.408 17.408 29.696V624.128c0.512 11.776-6.144 23.04-16.896 29.184z m-170.496-162.304l-234.496-139.264v-273.92c0-9.216-3.072-17.92-9.728-24.064-6.144-6.656-14.848-10.24-24.064-10.24-9.216 0-17.408 3.584-24.064 10.24-6.144 6.656-9.728 15.36-9.728 24.064v273.92L243.712 490.496c-16.384 9.728-21.504 30.72-12.288 47.104 4.096 7.68 11.776 13.824 19.968 16.384 8.704 2.56 17.92 1.024 25.6-3.072l233.984-138.752 233.984 138.752c7.68 4.608 16.896 5.632 25.6 3.584 8.704-2.56 15.872-8.192 20.48-15.872 10.24-16.896 4.608-37.888-11.776-47.616z"  horiz-adv-x="1024" />

    
    <glyph glyph-name="xinxi" unicode="&#59004;" d="M866.304 109.056l2.048 1.024c-17.92 33.792-65.024 131.584-65.024 177.664V491.52c0 119.808-80.896 222.208-193.024 260.608 4.608 11.776 7.168 24.576 7.168 37.888C616.96 848.384 569.344 896 510.976 896 452.096 896 404.48 848.384 404.48 789.504c0-13.312 2.56-26.112 7.168-37.888-112.64-38.4-193.024-140.8-193.024-260.608v-206.336c0-40.448-39.936-128.512-65.024-175.104l2.048-1.024c-3.584-5.12-6.144-11.264-6.144-17.408 0-17.92 15.36-32.768 34.304-32.768h164.864v1.024h350.72v-1.024h138.24c18.944 0 34.304 14.848 34.304 32.768 0 6.656-2.56 12.8-5.632 17.92zM510.976-123.904c70.656 0 127.488 56.832 127.488 127.488H383.488c0-70.656 56.832-127.488 127.488-127.488z"  horiz-adv-x="1024" />

    
    <glyph glyph-name="anquan" unicode="&#59006;" d="M496.128-120.832c-261.632 124.928-389.12 256-389.12 400.896V751.616H143.36c112.128 0 228.864 43.008 347.136 126.976l23.552 16.896 21.504-18.944c75.264-65.536 192.512-107.52 348.672-125.44l32.256-3.584v-467.456c0-155.136-131.072-290.304-390.144-401.408l-15.36-6.656-14.848 7.168z m-315.904 400.896c0-110.08 112.128-220.16 332.8-328.192 219.648 97.28 331.264 207.36 331.264 328.192V683.52c-141.312 19.456-253.44 60.416-333.312 120.32-111.104-74.24-222.208-116.224-330.752-123.392v-400.384z m300.032-68.096c-19.968 0-38.912 8.704-52.224 23.552l-127.488 144.384c-8.704 9.728-11.264 23.552-7.168 35.84 4.096 12.288 14.336 21.504 27.136 24.064 2.048 0 4.608 0.512 7.168 0.512 10.24 0 20.48-4.608 27.136-12.288l124.928-141.824 204.8 251.392c7.168 8.704 17.408 13.312 28.16 13.312 8.192 0 16.384-3.072 23.04-8.192 15.36-12.8 17.92-35.84 5.12-51.2l-206.848-253.952c-13.312-16.384-32.768-25.6-53.76-25.6z"  horiz-adv-x="1024" />

    
    <glyph glyph-name="tuichu2" unicode="&#59007;" d="M517.12 374.784c21.504 0 38.912 17.408 38.912 38.912V819.712c0 21.504-17.408 38.912-38.912 38.912-21.504 0-38.912-17.408-38.912-38.912v-405.504c0-21.504 17.92-39.424 38.912-39.424zM779.776 696.32c-17.408 13.312-41.472 10.24-54.784-6.144-13.312-17.408-10.24-41.472 6.144-54.784 87.04-69.12 137.216-173.056 137.216-284.16 0-199.68-162.304-362.496-362.496-362.496s-361.984 161.792-361.984 361.984c0 111.616 50.176 215.04 137.216 284.16 17.408 13.312 19.968 37.888 6.144 54.784-13.312 17.408-37.888 19.968-54.784 6.144-105.984-83.968-166.912-209.92-166.912-345.088 0-243.2 197.632-440.832 440.832-440.832S947.2 107.52 947.2 350.72c0 135.168-60.928 261.12-167.424 345.6z"  horiz-adv-x="1024" />

    
    <glyph glyph-name="jibenxinxi" unicode="&#59008;" d="M650.752 719.872c-35.84 35.84-84.992 57.856-139.776 57.856s-104.448-22.016-139.776-57.856c-35.84-35.84-57.856-84.992-57.856-139.776S334.848 475.648 371.2 440.32c35.328-35.328 84.992-57.856 139.264-57.856h1.024c54.272 0 103.936 22.528 139.264 57.856 35.84 35.84 57.856 84.992 57.856 139.776 0.512 54.272-21.504 103.936-57.856 139.776zM510.976 851.968c74.752 0 143.36-30.208 192.512-79.36 49.152-49.152 79.36-117.248 79.36-192.512s-30.208-143.36-79.36-192.512c-12.288-12.288-25.6-23.552-40.448-33.28 57.344-21.504 109.056-55.296 151.552-97.792 77.824-77.824 125.952-184.832 125.952-303.104 0-20.48-16.384-36.864-36.864-36.864s-36.864 16.384-36.864 36.864c0 98.304-39.936 186.88-103.936 250.88a354.82624 354.82624 0 0 1-251.392 103.936h-1.024c-98.304 0-187.392-39.936-251.392-103.936s-103.936-153.088-103.936-250.88c0-20.48-16.384-36.864-36.864-36.864s-36.864 16.384-36.864 36.864c0 118.272 48.128 225.792 125.952 303.104 42.496 42.496 94.208 76.288 151.552 97.792-14.336 9.728-28.16 20.992-40.448 33.28-49.152 49.152-79.36 117.248-79.36 192.512s30.208 143.36 79.36 192.512 117.76 79.36 192.512 79.36z"  horiz-adv-x="1024" />

    
    <glyph glyph-name="tuichipaiqi" unicode="&#59000;" d="M466.284656 410.67617c4.606267 0 8.188919 3.582652 8.188919 8.188918 0 4.606267-3.582652 8.188919-8.188919 8.188919-4.606267 0-8.188919-3.582652-8.188918-8.188919 0-4.606267 4.094459-8.188919 8.188918-8.188918zM424.828257 387.644836c5.118074 0 9.724341 4.094459 9.72434 9.724341 0 5.118074-4.094459 9.724341-9.72434 9.724341s-9.724341-4.094459-9.724341-9.724341c0-5.629881 4.094459-9.724341 9.724341-9.724341zM399.237886 339.53494c8.700726 0 15.86603 7.165304 15.86603 15.86603 0 8.700726-7.165304 15.86603-15.86603 15.866029s-15.86603-7.165304-15.866029-15.866029c0-8.700726 7.165304-15.86603 15.866029-15.86603zM483.174301 572.40731a31.220252 29.68483 90 1 1 59.369659 0 31.220252 29.68483 90 1 1-59.369659 0ZM466.284656 344.653014v-77.282918c0-9.212533 6.653496-15.86603 15.86603-15.86603s15.86603 6.653496 15.86603 15.86603v77.282918c0.511807 8.700726-6.653496 15.86603-15.354223 15.86603h-1.023614c-8.188919 0-15.354222-6.653496-15.354223-15.86603zM511.835516 441.384614c-9.212533 0-16.889644-7.677111-16.889645-16.889644s7.677111-16.889644 16.889645-16.889645c54.251585 0 97.755215-44.015437 97.755214-97.755214s-44.015437-97.755215-97.755214-97.755215c-54.251585 0-97.755215 44.015437-97.755215 97.755215 0 9.212533-7.677111 16.889644-16.889644 16.889644s-16.889644-7.677111-16.889645-16.889644c0-72.164844 58.857852-131.534504 131.534504-131.534504 72.164844 0 131.534504 58.857852 131.534503 131.534504S584.512167 441.384614 511.835516 441.384614zM962.226034 627.170703C827.620686 876.42091 517.465397 968.546243 268.726997 834.452703 19.988598 700.359162-72.648543 389.692066 61.444998 140.953666c134.093541-248.7384 444.248829-341.887348 693.499036-207.281999 249.250207 134.605348 341.887348 444.248829 207.282 693.499036zM404.35596 574.45454c0 7.165304 5.118074 14.842415 14.330608 14.842415h10.236148c7.165304 0 14.330607 5.118074 14.330607 14.842415 0 15.354222 12.795185 27.6376 27.6376 27.6376h81.889185c15.354222 0 27.6376-12.795185 27.6376-27.6376 0-7.165304 5.118074-14.842415 14.330608-14.842415h8.700726c6.653496 0 14.330607-5.629881 14.842414-15.354222v-44.015437c0-7.165304-5.118074-14.842415-14.330607-14.842415H418.686568c-7.165304 0-14.330607 5.118074-14.330608 14.842415v44.527244z m307.084444-399.209777c0-18.425067-18.936874-38.897363-36.338326-38.897363H348.057145c-20.984104 0-36.338326 22.519526-36.338325 38.897363V535.557177c0 20.472296 10.236148 35.314711 33.267481 33.267481H353.17522c7.165304 0 14.330607-5.118074 14.330607-14.842414v-64.999541c0-7.165304 5.118074-14.842415 14.330607-14.842415l260.50997 2.04723c7.165304 0 14.330607 5.118074 14.330608 14.842415V556.029473c0 8.700726 6.653496 14.842415 15.354222 14.842415h8.700726c18.936874 0 31.220252-16.377837 30.708444-33.267481v-362.359644zM556.874567 267.370096v77.282918c0.511807 8.700726-6.653496 15.86603-15.354222 15.86603h-1.023615c-9.212533 0-15.86603-6.653496-15.866029-15.86603v-77.282918c0-9.212533 6.653496-15.86603 15.866029-15.86603 9.212533-0.511807 16.377837 6.141689 16.377837 15.86603z"  horiz-adv-x="1024" />

    
    <glyph glyph-name="dangqianyixiafarenwu" unicode="&#58993;" d="M579.072 289.79200000000003l-48.64-41.472V411.136c0 10.752-8.704 19.456-19.456 19.456S491.52 421.888 491.52 411.136v-162.304l-48.64 41.472c-8.192 6.656-20.48 5.632-27.136-2.56-6.656-8.192-5.632-20.48 2.56-27.136L496.64 193.024c4.096-4.096 9.216-5.632 14.336-5.632 5.632 0 10.24 2.048 14.336 5.632l79.872 67.584c8.192 6.656 9.216 18.944 1.536 27.136-7.168 7.68-19.456 8.704-27.648 2.048zM513.536 541.184c15.872 0 29.696 11.264 29.696 31.232 0 16.384-12.288 31.232-29.696 31.232-15.872 0-29.696-14.848-29.696-31.232 0-16.384 13.824-31.232 29.696-31.232zM512 896C229.376 896 0 667.136 0 384s229.376-512 512-512c283.136 0 512 229.376 512 512S794.624 896 512 896zM404.992 574.976c0 7.168 5.632 14.848 14.336 14.848h10.24c7.168 0 14.336 5.632 14.336 14.848 0 15.872 12.8 27.648 27.648 27.648h81.92c15.36 0 27.648-12.8 27.648-27.648 0-7.168 5.632-14.848 14.336-14.848h8.704c6.656 0 13.824-5.632 14.848-15.36v-44.032c0-7.168-5.632-14.848-14.336-14.848H419.328c-7.168 0-14.336 5.632-14.336 14.848v44.544z m307.2-36.864v-363.52c0-18.432-18.944-38.912-36.864-38.912h-327.68c-20.992 0-36.864 22.528-36.864 38.912V536.0640000000001c0 20.48 10.24 35.328 33.28 33.28H353.28c7.168 0 14.336-5.632 14.336-14.848v-65.024c0-7.168 5.632-14.848 14.336-14.848l261.12 2.048c7.168 0 14.336 5.632 14.336 14.848V556.544c0 8.704 6.656 14.848 15.872 14.848h8.704c18.944 0 30.72-16.896 30.208-33.28z"  horiz-adv-x="1024" />

    
    <glyph glyph-name="baogongyichangshengchanka" unicode="&#58994;" d="M667.648 384zM356.352 384zM356.352 176.64v0.512zM667.648 176.64v0.512-0.512zM667.648 590.848v0.512zM356.352 590.848v0.512zM485.888 272.384h59.392v-55.808H485.888zM512 896C229.376 896 0 667.136 0 384s229.376-512 512-512 512 229.376 512 512S794.624 896 512 896z m190.464-742.912H323.072c-54.784 0-88.064 59.904-60.928 106.496l189.44 321.024c27.136 45.568 94.208 45.568 121.344 0l189.44-321.024c27.136-46.592-6.144-106.496-59.904-106.496zM491.008 309.24800000000005h47.104l8.704 182.784H482.304z"  horiz-adv-x="1024" />

    
    <glyph glyph-name="dangqiansuoyourenwu" unicode="&#58995;" d="M604.672 384.512H418.304c-10.752 0-19.456-8.704-19.456-19.456 0-10.752 8.704-19.456 19.456-19.456h186.368c10.752 0 18.944 8.192 19.456 19.456 0 10.752-8.704 19.456-19.456 19.456zM523.776 307.712H417.792c-10.752 0-19.456-8.704-19.456-19.456 0-10.752 8.704-19.456 19.456-19.456h106.496c10.752 0 19.456 8.704 18.944 19.456 0 10.24-8.704 19.456-19.456 19.456zM512 896C229.376 896 0 667.136 0 384s229.376-512 512-512c283.136 0 512 229.376 512 512S794.624 896 512 896zM404.992 574.4639999999999c0 7.168 5.12 14.848 14.336 14.848h10.24c7.168 0 14.336 5.12 14.336 14.848 0 15.36 12.8 27.648 27.648 27.648h81.92c15.36 0 27.648-12.8 27.648-27.648 0-7.168 5.12-14.848 14.336-14.848h8.704c6.656 0 13.824-5.632 14.848-15.36v-44.032c0-7.168-5.12-14.848-14.336-14.848H419.328c-7.168 0-14.336 5.12-14.336 14.848v44.544z m306.176-36.864v-361.984c0-18.432-18.944-38.912-36.352-38.912H348.16c-20.992 0-36.352 22.528-36.352 38.912V535.552c0 20.48 10.24 35.328 33.28 33.28H353.28c7.168 0 14.336-5.12 14.336-14.848v-65.024c0-7.168 5.12-14.848 14.336-14.848l260.096 2.048c7.168 0 14.336 5.12 14.336 14.848V556.0319999999999c0 8.704 6.656 14.848 15.36 14.848h8.704c19.456 0 31.744-16.896 30.72-33.28zM483.84 572.4159999999999a31.232 29.696 90 1 1 59.392 0 31.232 29.696 90 1 1-59.392 0Z"  horiz-adv-x="1024" />

    
    <glyph glyph-name="dengdaipeifangshengchanka" unicode="&#58996;" d="M667.648 384zM356.352 384zM356.352 176.64v0.512zM667.648 176.64v0.512-0.512zM667.648 590.848v0.512zM356.352 590.848v0.512zM632.32 217.08799999999997l-76.8 39.936v87.552c0 10.752-9.216 19.968-19.968 19.968s-19.968-9.216-19.968-19.968v-99.84c0-7.168 3.584-13.824 10.752-17.408l87.552-45.568c9.728-5.12 21.504-1.024 26.624 8.704 4.096 9.728 0.512 22.016-8.192 26.624zM594.432 461.312c-2.56 4.608-4.096 10.24-4.096 15.36V595.9680000000001H466.432v-119.296c0-5.632-1.536-10.752-4.096-15.36L435.712 414.72h185.856l-27.136 46.592zM512 896C229.376 896 0 667.136 0 384s229.376-512 512-512 512 229.376 512 512S794.624 896 512 896z m219.648-760.32H331.264c-28.16 0-50.688 25.088-50.688 55.808 0 11.264 3.584 21.504 8.704 30.208L435.712 476.16V596.48h-17.408c-10.24 0-17.92 7.68-17.92 17.92s8.192 17.92 17.92 17.92h219.648c10.24 0 17.92-7.68 17.92-17.92s-7.68-17.92-17.92-17.92h-16.384v-119.808l148.48-259.072c3.584-7.68 6.656-16.384 6.656-26.112 0-28.672-19.968-52.736-45.056-55.808z"  horiz-adv-x="1024" />

    
    <glyph glyph-name="jiyachaoqishengchanka" unicode="&#58997;" d="M512 282.11199999999997c11.776 0 20.992 8.704 20.992 20.992V398.848c0.512 11.264-8.704 20.992-19.968 20.992h-1.024c-11.776 0-20.992-8.704-20.992-20.992v-95.744c0-12.288 8.704-20.992 20.992-20.992zM501.209803 208.86715500000003a27.648 27.648 0 1 1 21.160863 51.086843 27.648 27.648 0 1 1-21.160863-51.086843ZM513.024 541.184c15.36 0 29.696 11.264 29.696 31.232 0 16.384-12.288 31.232-29.696 31.232-15.36 0-29.696-14.848-29.696-31.232 0-16.896 13.824-31.232 29.696-31.232zM512 896C228.864 896 0 667.136 0 384s229.376-512 512-512 512 229.376 512 512S795.136 896 512 896zM404.48 574.4639999999999c0 7.168 5.12 14.848 14.336 14.848h10.24c7.168 0 14.336 5.12 14.336 14.848 0 15.36 12.8 27.648 27.648 27.648h81.92c15.36 0 27.648-12.8 27.648-27.648 0-7.168 5.12-14.848 14.336-14.848h8.704c6.656 0 14.336-5.632 14.848-15.36v-44.032c0-7.168-5.12-14.848-14.336-14.848H418.816c-7.168 0-14.336 5.12-14.336 14.848v44.544z m307.2-399.36c0-18.432-18.944-38.912-36.352-38.912H348.16c-20.992 0-36.352 22.528-36.352 38.912V535.552c0 20.48 10.24 35.328 33.28 33.28H353.28c7.168 0 14.336-5.12 14.336-14.848v-65.024c0-7.168 5.12-14.848 14.336-14.848l260.608 2.048c7.168 0 14.336 5.12 14.336 14.848V556.0319999999999c0 8.704 6.656 14.848 15.36 14.848h8.704c18.944 0 31.232-16.384 30.72-33.28v-362.496z"  horiz-adv-x="1024" />

    
    <glyph glyph-name="shoudaoshengchanka" unicode="&#58998;" d="M667.648 384zM356.352 384zM356.352 176.64v0.512zM667.648 176.64v0.512-0.512zM667.648 590.848v0.512zM356.352 590.848v0.512zM553.472 427.52l-51.2-55.808-20.992 18.432c-5.632 5.12-14.336 4.608-19.456-1.024s-4.608-14.336 1.024-19.456l30.72-27.648c3.072-2.56 5.632-3.584 9.216-3.584 4.096 0 7.168 1.536 10.24 4.096L573.44 408.064c5.12 5.12 4.608 13.824-1.024 19.968-5.12 5.12-13.312 5.12-18.944-0.512zM512 896C228.864 896 0 667.136 0 384s229.376-512 512-512c283.136 0 512 229.376 512 512S794.624 896 512 896zM331.776 355.328h-51.2c-26.624-0.512-47.616-22.528-47.104-49.152 0.512-26.624 22.528-47.616 49.152-47.104h48.128v-48.128H278.528C225.28 211.96799999999996 183.296 256 184.32 309.24800000000005c2.048 53.248 46.08 95.232 99.328 94.208h48.128v-48.128z m324.608-200.704c0-10.752-8.704-19.456-19.456-19.456H387.072c-10.752 0-19.456 8.704-19.456 19.456v76.8c0 10.752 8.704 19.456 19.456 19.456h250.368c10.752 0 19.456-8.704 19.456-19.456v-76.8z m0 191.488c0-10.752-8.704-19.456-19.456-19.456H387.072c-10.752 0-19.456 8.704-19.456 19.456v76.8c0 10.752 8.704 19.456 19.456 19.456h250.368c10.752 0 19.456-8.704 19.456-19.456v-76.8z m0 192c0-10.752-8.704-19.456-19.456-19.456H387.072c-10.752 0-19.456 8.704-19.456 19.456v76.8c0 10.752 8.704 19.456 19.456 19.456h250.368c10.752 0 19.456-8.704 19.456-19.456v-76.8z m88.576-174.08H692.736v48.128h48.128c26.624 0 48.128 21.504 48.128 48.128s-21.504 48.128-48.128 48.128h-48.128v48.128h48.128c53.248 1.024 97.28-41.984 98.304-95.232 1.024-52.224-40.96-96.256-94.208-97.28z"  horiz-adv-x="1024" />

    
    <glyph glyph-name="weipairenwu" unicode="&#58999;" d="M593.92 261.12l-75.264 39.424V386.048c0 10.752-8.704 19.456-19.456 19.456-10.752 0-19.456-8.704-19.456-19.456v-97.28c0-6.656 3.584-13.824 10.24-16.896l85.504-44.544c9.216-5.12 20.992-1.024 26.112 8.192 5.12 8.704 1.024 20.48-7.68 25.6zM513.536 541.696c15.872 0 29.184 11.264 29.696 31.232 0 16.896-12.288 31.232-29.696 31.232-15.872 0-29.696-14.848-29.696-31.232-0.512-16.384 13.824-31.232 29.696-31.232zM512 896C229.376 896 0 667.136 0 384s229.376-512 512-512c283.136 0 512 229.376 512 512S794.624 896 512 896zM404.48 575.488c0 7.168 5.632 14.848 14.336 14.848h10.24c7.168 0 14.336 5.632 14.336 14.848 0 15.872 12.8 28.16 28.16 28.16h82.432c15.36 0 28.16-12.8 28.16-28.16 0-7.168 5.632-14.848 14.336-14.848h8.704c6.656 0 13.824-5.632 14.848-15.36v-44.032c0-7.168-5.632-14.848-14.336-14.848H418.816c-7.168 0-14.336 5.632-14.336 14.848v44.544z m307.712-37.376V174.08000000000004c0-18.432-18.944-39.424-36.864-39.424h-327.68c-20.992 0-36.864 22.528-36.864 39.424V536.0640000000001c0 20.48 10.24 35.328 33.28 33.28h8.704c7.168 0 14.336-5.632 14.336-14.848v-65.024c0-7.168 5.632-14.848 14.336-14.848l261.632 2.048c7.168 0 14.336 5.632 14.336 14.848V557.056c0 8.704 6.656 14.848 15.872 14.848h8.704c18.944-0.512 31.232-16.896 30.208-33.792z"  horiz-adv-x="1024" />

    
    <glyph glyph-name="yanse2" unicode="&#58992;" d="M210.944 348.672h424.96L423.424 561.152zM513.024 896C231.424 896 2.56 667.136 2.56 385.024c0-282.112 228.864-510.976 510.976-510.976 282.112 0 510.464 229.376 510.464 510.976S795.136 896 513.024 896z m197.12-593.408L468.992 61.44c-10.752-10.752-28.16-17.92-46.08-17.92s-31.744 3.584-46.08 17.92l-241.152 241.152c-24.576 24.576-24.576 67.072 0 92.16l226.816 226.816-105.472 106.496L317.44 792.064l396.8-393.216c24.576-28.672 24.576-71.168-4.096-96.256z m110.08-262.144c-49.664 0-88.576 38.912-88.576 88.576 0 60.416 88.576 155.648 88.576 155.648s88.576-95.744 88.576-155.648c0-49.664-38.912-88.576-88.576-88.576z"  horiz-adv-x="1024" />

    
    <glyph glyph-name="ritongji" unicode="&#58991;" d="M513.024 896C231.424 896 2.56 667.136 2.56 385.024s228.864-510.976 510.976-510.976c282.112 0 510.464 229.376 510.464 510.976S795.136 896 513.024 896zM161.792 119.296l-15.36 0.512v48.128h91.136V488.96c0 13.312 10.24 23.552 23.552 23.552h107.52c13.312 0 23.552-10.24 23.552-23.552v-321.024h48.64v486.4c0 13.312 10.24 23.552 23.552 23.552h107.008c13.312 0 23.552-10.24 23.552-23.552v-486.4h48.64v286.72c0 13.312 10.24 23.552 23.552 23.552h107.52c13.312 0 23.552-10.24 23.552-23.552v-287.232H880.64v-48.128H161.792z"  horiz-adv-x="1024" />

    
    <glyph glyph-name="daoru1" unicode="&#58990;" d="M513.024 896C231.424 896 2.56 667.136 2.56 385.024c0-282.112 228.864-510.976 510.976-510.976 282.112 0 510.464 229.376 510.464 510.976S795.136 896 513.024 896zM332.288 481.28c0.512 1.536 2.048 2.56 3.584 2.56h111.104V648.192c0 3.072 1.024 6.144 3.584 8.704 2.56 2.56 5.632 3.584 8.704 3.584H568.32c3.072 0 6.144-1.024 8.704-3.584 2.56-2.56 3.584-5.632 3.584-8.704v-164.352h111.104c1.536 0 3.072-1.024 3.584-2.56 0.512-1.536 0-3.072-1.024-4.608L521.216 317.44c-2.048-2.048-5.12-3.072-8.192-3.072-3.072 0-6.144 1.024-8.192 3.072L333.312 477.184c-1.536 1.024-1.536 2.56-1.024 4.096z m539.136-196.096l-42.496-131.584c-2.56-7.168-10.752-13.312-18.432-13.312h-593.92c-7.68 0-15.872 6.144-18.432 13.312l-43.008 131.584c-2.56 7.168 0.512 17.408 6.656 22.016l108.032 83.968c6.144 4.608 17.408 8.704 25.088 8.704h49.664l-125.952-103.936h140.288l50.688-75.264h207.36l52.736 75.264h141.312l-121.856 103.936h43.008c7.68 0 18.944-4.096 25.088-8.704L865.28 307.2c5.632-4.608 8.704-14.336 6.144-22.016z"  horiz-adv-x="1024" />

    
    <glyph glyph-name="lianjiewenjian" unicode="&#58988;" d="M813.568 328.192L889.856 404.48c68.608 68.608 68.608 179.712 0 248.32-68.608 68.608-179.712 68.608-248.32 0L450.56 461.824l-0.512-0.512-94.72-94.72c-26.112-26.624-26.112-69.12 0-95.744 26.624-26.112 69.12-26.112 95.744 0l229.376 229.376c15.36 16.384 40.96 16.896 57.344 1.536 16.384-15.36 16.896-40.96 1.536-57.344l-1.536-1.536-229.376-229.376c-27.648-27.648-65.536-43.52-104.96-43.52-39.424 0-77.312 15.36-104.96 43.52C240.64 271.36 240.64 365.568 298.496 423.936l229.376 229.376 0.512 0.512 56.32 56.32c99.84 100.352 263.168 99.84 363.008 0 99.84-99.84 99.84-262.656 0-363.008l-190.976-190.976-1.024-1.024-132.608-132.608c-68.096-68.608-161.28-107.008-258.048-106.496-96.768 0-189.44 38.4-258.048 106.496C37.888 91.136 0 182.272 0 280.064s37.888 189.44 106.496 258.048l305.664 305.664c16.384 15.36 41.984 14.336 57.344-2.048 14.336-15.36 14.336-39.936 0-55.296L163.84 480.768a281.01632 281.01632 0 0 1-82.432-200.704c0-75.776 29.184-147.456 82.432-200.704 53.248-53.248 125.44-82.944 200.704-82.432 75.776 0 147.456 29.184 200.704 82.432l133.12 133.12 1.024 1.024 93.184 93.184 20.992 21.504z"  horiz-adv-x="1024" />

    
    <glyph glyph-name="daoru" unicode="&#58986;" d="M899.584-126.976H123.904c-67.584 0-122.88 55.296-122.88 122.88V771.584c0 67.584 55.296 122.88 122.88 122.88h338.944c22.528 0 40.96-18.432 40.96-40.96s-18.432-40.96-40.96-40.96H123.904c-22.528 0-40.96-18.432-40.96-40.96v-775.68c0-22.528 18.432-40.96 40.96-40.96h775.68c22.528 0 40.96 18.432 40.96 40.96v267.264c0 22.528 18.432 40.96 40.96 40.96s40.96-18.432 40.96-40.96v-267.264c0-68.096-55.296-122.88-122.88-122.88zM510.976 251.392c-20.992 0-38.4 15.872-40.448 36.864-1.024 10.24-24.576 257.024 126.464 434.688C685.568 826.368 814.08 883.712 978.944 892.928c22.528 1.024 41.984-15.872 43.008-38.4 1.536-22.528-15.872-41.984-38.4-43.008-141.312-8.192-250.368-55.808-323.584-141.312-128.512-150.016-108.032-371.2-108.032-373.76 2.048-22.528-14.336-42.496-36.864-45.056h-4.096zM513.024 184.832c-11.776 0-23.552 5.12-31.232 14.336L317.44 391.68c-14.848 17.408-12.8 43.008 4.608 57.856s43.008 12.8 57.856-4.608l133.12-155.648 130.56 155.136c14.336 17.408 40.448 19.456 57.856 5.12 17.408-14.336 19.456-40.448 5.12-57.856L544.256 199.68c-7.68-9.216-18.944-14.848-31.232-14.848z"  horiz-adv-x="1024" />

    
    <glyph glyph-name="shangchuan-" unicode="&#58981;" d="M1024.963841 472.943781l-153.5952 383.988a52.47836 52.47836 0 0 1-52.47836 39.03878H196.82972a52.47836 52.47836 0 0 1-50.55842-37.11884L0.99584 477.423641a49.91844 49.91844 0 0 1 0-19.839381V-46.71998A82.55742 82.55742 0 0 1 84.19324-127.99744h857.573201a83.1974 83.1974 0 0 1 83.1974 81.91744V447.98456v5.11984a51.83838 51.83838 0 0 1 0 19.199401zM618.576541 531.181961V511.982561A99.1969 99.1969 0 0 0 512.97984 408.3058a104.95672 104.95672 0 0 0-74.87766 28.15912A102.3968 102.3968 0 0 0 408.02312 511.982561v19.1994H128.99184l108.7966 261.11184h545.902941l108.7966-261.11184z m-511.984001-103.676761H320.98584a200.95372 200.95372 0 0 1 191.994-122.87616 215.03328 215.03328 0 0 1 123.516141 36.47886A200.31374 200.31374 0 0 1 704.973841 426.86522h213.75332v-451.1859H105.95256z"  horiz-adv-x="1025" />

    
    <glyph glyph-name="guanbi" unicode="&#58890;" d="M512 896C229.325 896 0 666.675 0 384s229.325-512 512-512 512 229.325 512 512S794.675 896 512 896zM722.995 182.835c-10.675-10.675-29.67-10.675-40.55 0l-161.05 161.05-161.075-161.05c-10.675-10.675-29.645-10.675-40.525 0-10.675 10.65-10.675 29.645 0 40.525l161.05 161.075-160.41 160.41c-10.675 10.675-10.675 29.67 0 40.55 10.65 10.65 29.645 10.65 40.525 0L521.395 424.96l160.41 160.435c11.315 10.65 29.67 10.65 40.55 0 10.65-10.675 10.65-29.67 0-40.55L561.92 384.435 722.995 223.36c10.65-10.88 10.65-29.875 0-40.525z"  horiz-adv-x="1024" />

    
    <glyph glyph-name="fanbu2" unicode="&#58909;" d="M625.664 464.384c46.592-5.632 91.648-7.68 134.144-5.12l27.136 1.536 39.936-561.664 164.352 23.04L849.408 863.232 53.76 684.544c72.704-45.568 317.952-188.928 571.904-220.16zM16.896 675.84c12.288-27.648 25.6-54.784 39.424-80.896 140.288-237.568 531.456-590.848 743.424-700.416l-38.4 537.088C403.968 412.672 16.896 675.84 16.896 675.84z"  horiz-adv-x="1024" />

    
    <glyph glyph-name="pingzheng" unicode="&#58912;" d="M0 591.36s266.24 101.888 342.016 144.384 62.976 71.168 138.752 113.664 174.08 32.256 174.08 32.256L1024 220.672s-163.328 74.24-251.904 32.768-64.512-135.68-139.776-193.536-408.576-174.08-408.576-174.08L0 591.36zM480.768 849.408c-75.776-42.496-61.952-71.168-138.752-113.664L631.808 58.88c75.264 58.88 51.2 152.576 139.776 193.536L480.768 849.408z m-222.72-492.544l-97.28-119.296h148.48l-14.336 31.744s102.4 57.344 141.312 113.152c-24.064-17.408-75.264-51.2-161.792-64l-16.384 38.4z m562.688 271.872l19.968-36.864C777.728 531.456 719.872 512 691.2 503.808c68.608-3.072 176.128 41.984 176.128 41.984l15.872-30.72 91.648 117.76-154.112-4.096z"  horiz-adv-x="1024" />

    
    <glyph glyph-name="kaifu" unicode="&#58924;" d="M0.512 41.984s168.96-181.248 307.2-79.36 456.704 406.528 663.552-75.264l53.248 946.176s-34.816-28.672-63.488 0C893.952 900.608 776.704 892.928 695.296 834.56c-121.856-87.552-146.944-6.144-175.104 1.024L0.512 41.984zM307.712-37.376C385.024 19.456 519.68 140.8 658.944 151.04l163.84 729.6c-44.544-3.072-89.6-18.944-127.488-46.08-28.16-36.864-472.576-902.656-472.576-902.656 28.16 1.024 57.344 10.24 84.992 30.72z"  horiz-adv-x="1024" />

    
    <glyph glyph-name="tuijiang" unicode="&#58931;" d="M771.072 467.456l28.16 1.536 14.336-198.656c40.448 12.288 80.896 41.984 121.856 88.064 2.56 2.56 5.12 5.12 7.68 7.168L864.256 886.784 38.4 701.44c75.264-47.104 330.24-196.096 593.408-228.352 48.128-6.144 95.232-8.192 139.264-5.632z m53.248-349.184l16.384-231.936L1011.2-89.6l-41.472 275.968c-46.592-35.84-95.744-58.368-145.408-68.096zM433.664 373.248c83.968 0 160.768-24.064 227.84-71.168 36.864-25.6 73.216-38.912 108.032-38.912 5.12 0 10.24 0.512 15.36 1.024l-12.288 174.592C401.92 418.816 0 692.224 0 692.224c12.8-28.672 26.624-56.832 40.96-83.968 47.616-80.896 123.904-175.104 211.968-268.8 50.688 18.432 113.152 33.792 180.736 33.792zM769.536 112.64c-66.048 0-131.072 22.528-194.048 66.56-40.96 28.672-88.064 43.008-141.312 43.008-19.968 0-39.936-2.048-58.368-5.12 153.6-145.92 321.536-275.968 437.248-335.872l-16.896 232.96c-9.216-0.512-17.92-1.536-26.624-1.536zM769.536 155.136c-56.832 0-113.664 19.456-169.984 58.88-178.688 125.44-402.944-20.992-405.504-22.528-9.728-6.656-22.528-7.68-33.28-2.56s-17.92 15.872-18.432 27.648 5.12 23.04 15.36 29.696c10.752 7.168 264.192 172.032 479.232 21.504 112.64-78.848 223.744-57.856 329.728 62.464 11.776 13.824 32.256 14.848 46.08 3.072s14.848-32.256 3.072-46.08c-77.312-87.552-161.28-132.096-246.272-132.096z"  horiz-adv-x="1024" />

    
    <glyph glyph-name="yusuo" unicode="&#58945;" d="M353.792 718.848S304.128 253.952 0 52.736c0 0 144.384-212.48 418.304 0s476.16 17.408 526.336-138.24l57.856 855.552c0.512 0.512-251.904 224.256-648.704-51.2zM461.312 399.36l-122.368 72.192v-55.808C133.632 303.104 15.36 380.928 15.36 380.928c99.84-108.544 257.536-88.064 323.584-73.216v-54.784L461.312 399.36z m129.024 37.376l97.28-104.448 15.872 53.248C932.352 435.712 1024 327.168 1024 327.168c-65.024 132.096-222.72 157.184-289.792 162.304l15.36 52.224-159.232-104.96z"  horiz-adv-x="1024" />

    
    </font>
</defs>
</svg>
